<svg width="126" height="40" fill="none" xmlns="http://www.w3.org/2000/svg"><path d="M16.46 14.401v-2.816h-2.858c-.578.902-1.282 1.627-2.112 2.174a.077.077 0 01-.034.007c-.073 0-.11-.037-.11-.11 0-.013.005-.027.014-.04a9.355 9.355 0 001.962-3.193c.178-.492.306-.991.383-1.497.866.205 1.299.383 1.299.533 0 .132-.169.226-.506.28-.169.47-.396.969-.683 1.497h2.645v-.745c0-.989-.023-1.665-.068-2.03.628.073 1.039.141 1.23.205.137.05.205.119.205.205 0 .123-.162.244-.485.362v2.003h2.714c.405-.474.642-.71.71-.71.078 0 .336.177.773.533.223.177.335.307.335.39 0 .09-.066.136-.198.136h-4.334v2.816h3.862c.456-.524.722-.786.8-.786.077 0 .348.192.813.575.242.2.363.346.363.437 0 .082-.062.123-.185.123h-4.368v4.491c0 .278.11.456.328.533.223.082.67.123 1.34.123.852 0 1.365-.075 1.538-.225.191-.178.433-.795.725-1.853.013-.032.04-.047.082-.047.059 0 .088.025.088.075a63.868 63.868 0 00-.027 1.169c0 .086.002.161.007.225.01.192.096.317.26.376.141.05.212.162.212.335 0 .31-.237.51-.711.602-.41.114-1.13.17-2.16.17-1.094 0-1.812-.109-2.154-.328-.291-.186-.437-.519-.437-.998l.027-1.654V14.75h-2.112c-.055 1.463-.326 2.639-.814 3.527-.729 1.313-2.085 2.217-4.067 2.714-.078.014-.116-.034-.116-.143 0-.028.011-.046.034-.055.975-.401 1.748-.866 2.317-1.395a4.766 4.766 0 001.176-1.654c.32-.729.501-1.727.547-2.994h-2.755c-.364 0-.697.027-.998.082l-.137-.526c.415.064.786.095 1.115.095h4.525zm13.558-4.313h2.728c.25-.456.442-.852.574-1.19.096-.278.16-.512.191-.704.575.224.926.37 1.053.438.128.073.192.15.192.232 0 .132-.196.203-.588.212-.287.333-.627.67-1.019 1.012h2.447c.392-.451.627-.677.705-.677.077 0 .323.173.738.52.196.155.294.278.294.369 0 .091-.064.136-.192.136H31.92v1.293h2.755c.378-.433.608-.65.69-.65.078 0 .31.164.697.492.187.16.28.287.28.383 0 .082-.06.123-.184.123H31.92v1.388h4.21c.379-.447.61-.67.691-.67.073 0 .324.168.752.506.205.155.308.285.308.39 0 .082-.06.122-.178.122h-8.019c-.168.483-.3.848-.396 1.094l.082.041c.087.046.157.087.212.123h5.236c.27-.296.435-.444.5-.444.072 0 .259.125.56.376.15.137.225.24.225.307 0 .1-.116.226-.348.377v1.476l.068 3.486c0 .26-.182.39-.547.39-.241 0-.362-.11-.362-.328v-.417h-5.428v.403c0 .246-.178.37-.533.37-.242 0-.362-.103-.362-.308l.068-3.165.014-1.484c-.857 1.482-1.949 2.662-3.275 3.541a.062.062 0 01-.027.007c-.087 0-.13-.045-.13-.137 0-.013.007-.027.02-.04.84-.72 1.602-1.662 2.29-2.824.593-.998 1-1.946 1.224-2.844h-2.078c-.264 0-.608.028-1.032.082l-.13-.526c.36.064.747.096 1.162.096h4.382v-1.388H28.07c-.305 0-.622.023-.95.069l-.144-.5a8.9 8.9 0 001.08.082h3.022v-1.291H27.12a6.56 6.56 0 00-.964.068l-.143-.533c.382.077.747.116 1.093.116h2.564c-.096-.055-.176-.171-.24-.349a3.076 3.076 0 00-.765-1.271.066.066 0 01-.02-.048c0-.064.029-.096.088-.096.014 0 .023.002.027.007.511.155.914.36 1.21.615.256.228.383.454.383.677 0 .205-.111.36-.335.465zm4.895 8.483h-5.428v1.374h5.428v-1.374zm0-.348v-1.244h-5.428v1.244h5.428zm0-1.593v-1.21h-5.428v1.21h5.428zm8.862-7.089c.15 0 .226.06.226.178a83.991 83.991 0 00-.069 3v4.253c0 .701.012 1.16.034 1.374.023.182.069.33.137.444.1.182.524.3 1.272.355.082.01.123.078.123.206 0 .132-.032.198-.096.198a47.547 47.547 0 00-1.976-.055c-.424 0-1.096.018-2.016.055-.064 0-.096-.066-.096-.198 0-.128.046-.196.137-.206.446-.031.756-.077.93-.136a.51.51 0 00.287-.219c.114-.178.17-.784.17-1.818v-4.915c0-.543-.05-.882-.15-1.019a.463.463 0 00-.396-.184c-.123 0-.292.034-.506.102l-.616.192c-.118 0-.177-.094-.177-.28 0-.056.052-.101.157-.138a17.933 17.933 0 002.625-1.189zm7.727.068c.916 0 1.655.477 2.215 1.43.538.906.807 2.118.807 3.636 0 1.74-.33 3.071-.991 3.992-.538.747-1.215 1.121-2.03 1.121-1.003 0-1.776-.478-2.318-1.436-.492-.875-.738-2.07-.738-3.588 0-1.782.337-3.133 1.011-4.054.543-.734 1.224-1.1 2.044-1.1zm0 .431c-1.207 0-1.811 1.559-1.811 4.676 0 1.759.182 3.008.547 3.746.291.592.713.889 1.264.889.616 0 1.067-.39 1.354-1.17.282-.76.424-1.916.424-3.465 0-3.117-.593-4.676-1.778-4.676zm10.08.438c-.329.46-.739.927-1.231 1.4.579.215 1.039.502 1.38.862.283.301.425.597.425.889 0 .16-.05.298-.15.417a.384.384 0 01-.302.157c-.2 0-.344-.139-.43-.417a3.55 3.55 0 00-1.094-1.743c-.807.734-1.782 1.39-2.926 1.969a.06.06 0 01-.027.007c-.073 0-.11-.048-.11-.144 0-.023.007-.037.02-.041 1.591-1.025 2.9-2.374 3.925-4.047a7.071 7.071 0 00.745-1.538c.82.219 1.23.397 1.23.533 0 .119-.187.221-.56.308-.246.433-.46.78-.643 1.039h3.418c.296-.337.479-.506.547-.506.082 0 .296.164.643.492.177.164.266.285.266.362 0 .11-.177.217-.533.322-1.262 2.123-2.869 3.805-4.82 5.045l.049.027h5.14c.296-.319.472-.478.526-.478.069 0 .265.136.588.41.15.127.226.234.226.321 0 .096-.125.216-.376.362v1.203l.055 2.974c0 .25-.183.376-.547.376-.155 0-.258-.025-.308-.075-.045-.046-.068-.128-.068-.246v-.56h-5.394v.532c0 .251-.177.376-.533.376-.26 0-.39-.111-.39-.335l.069-2.98c0-.72-.005-1.164-.014-1.333-1.012.547-2.171 1.041-3.48 1.483h-.013c-.068 0-.103-.047-.103-.143 0-.027.012-.046.035-.055 3.9-1.677 6.73-4.085 8.49-7.226H61.58zm5.058 9.33V16.22h-5.394v3.589h5.394zm12.246-8.77h-2.017c-.191 0-.49.023-.895.068l-.137-.512c.364.064.704.096 1.019.096h3.055c.287-.502.515-.978.684-1.43.16-.373.253-.68.28-.922.542.214.882.362 1.019.444.123.069.184.14.184.212 0 .128-.182.203-.547.226a9.673 9.673 0 01-1.244 1.47h2.058c.319-.393.52-.588.601-.588.082 0 .315.155.698.464.168.133.252.244.252.335 0 .091-.059.137-.177.137h-4.033v1.545h1.845c.351-.41.558-.615.622-.615.055 0 .278.164.67.492.178.155.267.267.267.335 0 .091-.062.137-.185.137h-3.22v1.579h2.817c.337-.42.547-.63.629-.63.068 0 .3.165.697.493.187.15.28.267.28.349 0 .09-.059.136-.177.136h-4.19a8.868 8.868 0 001.175 2.256c.378-.364.73-.795 1.053-1.292a4.04 4.04 0 00.307-.588c.68.406 1.019.661 1.019.766 0 .118-.098.178-.294.178-.073 0-.166-.01-.28-.028a8.116 8.116 0 01-1.648 1.163c.114.15.249.302.404.457.824.857 1.73 1.44 2.713 1.75.032.014.048.037.048.069 0 .05-.025.084-.075.102-.287.078-.476.24-.567.486-.05.141-.114.212-.192.212-.082 0-.223-.076-.423-.226a9.54 9.54 0 01-1.962-1.941c-.58-.766-1.05-1.766-1.416-3.001.083 2.998.124 4.61.124 4.833a.853.853 0 01-.438.772c-.237.16-.497.24-.78.24-.072 0-.118-.012-.136-.035a.511.511 0 01-.048-.177c-.032-.178-.141-.315-.328-.41-.187-.1-.526-.21-1.019-.329-.036-.014-.054-.045-.054-.096 0-.068.023-.098.068-.088a16.02 16.02 0 001.64.095c.17 0 .254-.098.254-.294V17.73c-.912.634-1.962 1.194-3.152 1.682-.031.337-.102.506-.212.506-.114 0-.341-.392-.683-1.176.26-.04.54-.098.84-.17a17.693 17.693 0 003.207-1.163v-2.55h-2.017c-.332 0-.668.023-1.005.069l-.13-.513c.406.064.78.096 1.122.096h2.03v-1.58h-1.723c-.282 0-.581.023-.895.069l-.124-.513c.351.064.686.096 1.005.096h1.737v-1.545zm-4.8.855v1.052c.98.474 1.47 1.037 1.47 1.689 0 .373-.145.56-.437.56-.173 0-.285-.13-.335-.39-.114-.67-.346-1.187-.697-1.551v.574l.027 6.918c0 .25-.178.376-.533.376-.232 0-.349-.102-.349-.307 0-.064.005-.333.014-.807.041-1.65.078-3.678.11-6.084-.588 1.568-1.313 2.848-2.174 3.842a.065.065 0 01-.048.02c-.078 0-.116-.036-.116-.11l.006-.027c1.035-1.708 1.757-3.627 2.167-5.755h-.943c-.242 0-.522.022-.84.068l-.138-.52c.351.069.668.103.95.103h1.08v-1.497c0-.761-.031-1.35-.095-1.764.615.06 1.012.119 1.19.178.132.046.198.107.198.185 0 .118-.169.243-.506.375v2.523h.602c.273-.383.446-.574.519-.574.082 0 .3.168.656.506.114.109.171.202.171.28 0 .091-.066.137-.198.137h-1.75zm1.812 3.54a.046.046 0 01-.02-.04c0-.055.034-.083.103-.083a.06.06 0 01.027.007c.529.178.952.422 1.271.732.27.269.404.526.404.772a.57.57 0 01-.144.41.379.379 0 01-.287.123c-.11 0-.191-.027-.246-.081-.06-.06-.116-.178-.171-.356-.191-.615-.504-1.11-.937-1.483zm.992-6.883c-.014-.014-.02-.028-.02-.041 0-.05.031-.075.095-.075.013 0 .025.002.034.006.497.187.895.427 1.196.718.256.246.383.481.383.704 0 .192-.052.34-.157.445a.398.398 0 01-.3.13c-.133 0-.227-.037-.281-.11-.05-.068-.091-.189-.123-.362-.137-.529-.413-1-.827-1.415zm18.357 8.401a12.81 12.81 0 001.79-1.654c.26-.287.466-.568.616-.84.624.455.937.744.937.867 0 .1-.091.15-.274.15-.082 0-.187-.008-.314-.027a12.091 12.091 0 01-2.632 1.696c.228.35.499.683.813.998a6.813 6.813 0 002.666 1.681c.032.01.048.03.048.062 0 .059-.03.093-.089.102-.155.041-.266.1-.335.178-.068.077-.139.214-.212.41-.036.132-.09.198-.163.198-.078 0-.233-.075-.465-.225-.816-.52-1.538-1.22-2.167-2.099-.72-1.02-1.222-2.347-1.504-3.978h-1.614v4.785a26.639 26.639 0 002.707-.752c.055 0 .082.036.082.11a.067.067 0 01-.034.06c-1.03.575-2.508 1.181-4.436 1.82-.06.314-.153.47-.28.47-.06 0-.121-.077-.185-.232-.064-.16-.18-.51-.349-1.052.287-.014.616-.05.985-.11.21-.045.433-.088.67-.13v-6.384c0-2.147-.023-3.557-.069-4.232.347.132.69.301 1.033.506h3.882c.278-.31.45-.465.513-.465.073 0 .264.132.574.397.15.136.226.239.226.307 0 .096-.121.226-.362.39v1.32l.04 3.205c0 .242-.173.363-.519.363-.25 0-.376-.098-.376-.294v-.082h-2.167c.246 1.002.567 1.83.964 2.481zm1.203-2.83v-2.105h-4.102v2.105h4.102zm0-2.454v-1.99h-4.102v1.99h4.102zm-8.723-2.194v7.505l.028 3.61c0 .26-.169.39-.506.39-.27 0-.403-.108-.403-.322l.068-6.747c0-3.108-.023-4.867-.069-5.277.41.178.757.342 1.04.492h1.9c.242-.269.39-.403.444-.403.091 0 .283.157.575.471.15.16.225.276.225.349 0 .096-.13.19-.39.28-.651 1.317-1.262 2.372-1.832 3.165 1.158.985 1.737 2.053 1.737 3.206 0 .575-.117.998-.349 1.272-.26.337-.567.506-.923.506-.077 0-.127-.012-.15-.034a.41.41 0 01-.048-.165.62.62 0 00-.273-.43c-.15-.105-.406-.203-.766-.294-.036-.014-.055-.046-.055-.096 0-.068.023-.098.069-.089.533.069.916.103 1.148.103a.415.415 0 00.335-.157c.123-.15.185-.42.185-.807 0-1.107-.406-2.099-1.217-2.974a18.77 18.77 0 001.285-3.554h-2.058zm14.878.813h3.897v-.984c0-.25-.019-.563-.055-.937.62.069 1.021.132 1.203.192.137.045.205.107.205.184 0 .119-.157.24-.472.363v1.182h4.116c.323-.355.519-.533.588-.533.091 0 .339.187.745.56.214.206.321.36.321.465 0 .146-.178.22-.533.22a.719.719 0 00-.472.184c-.387.332-.663.56-.827.683a.047.047 0 01-.034.014c-.055 0-.082-.027-.082-.082 0-.01.002-.018.007-.027.191-.479.319-.857.382-1.135h-8.975c-.018.583-.153 1.032-.404 1.346-.2.26-.442.39-.724.39a.54.54 0 01-.41-.157.456.456 0 01-.137-.335c0-.232.125-.415.376-.547.369-.182.627-.415.772-.697.128-.242.217-.586.267-1.032.005-.041.034-.062.089-.062.055 0 .084.02.089.062.045.268.068.496.068.683zm4.006 9.099v-6.412h-3.124c-.333 0-.649.027-.95.082l-.137-.527c.337.064.7.096 1.087.096h6.556c.405-.483.647-.725.724-.725.082 0 .349.183.8.547.223.183.335.317.335.404 0 .082-.066.123-.198.123h-4.225v2.912h2.338c.406-.488.647-.732.725-.732.068 0 .33.187.786.56.196.17.294.302.294.397 0 .082-.06.123-.178.123h-3.965v3.391c.529.1 1.158.15 1.887.15 1.44 0 2.625-.088 3.555-.266.05-.01.075.02.075.089 0 .045-.016.077-.048.095-.187.1-.31.196-.369.288a.641.641 0 00-.089.341c0 .164-.089.253-.267.267-.383.027-1.242.04-2.577.04-1.782 0-3.144-.373-4.088-1.12-.729-.579-1.287-1.329-1.675-2.25-.583 1.468-1.581 2.665-2.994 3.59a.11.11 0 01-.034.007c-.082 0-.123-.044-.123-.13 0-.014.005-.026.014-.035 1.367-1.235 2.24-2.734 2.618-4.498a10.54 10.54 0 00.239-1.832c.912.178 1.367.335 1.367.472 0 .087-.041.15-.123.191-.054.032-.18.078-.376.137-.114.602-.255 1.16-.424 1.675.433.98 1.026 1.7 1.778 2.16.25.15.513.28.786.39z" fill="#8B6C3A"/><path d="M59.847 28.589H1L5.203 1H125l-4.203 27.589H70.356L59.848 39" stroke="#8B6C3A"/></svg>