<svg width="130" height="94" fill="none" xmlns="http://www.w3.org/2000/svg"><path fill-rule="evenodd" clip-rule="evenodd" d="M128.4 81.525c.115.189.212.389.289.597l.232-.01a3.43 3.43 0 01.093-.512 4.02 4.02 0 01.158-.504l.017-.047c.048-.14.092-.263.151-.373.019-.035.039-.069.059-.101.048-.078.089-.147.089-.206a4.117 4.117 0 00-.493-.27 5.427 5.427 0 00-.762-.29 8.092 8.092 0 00-.93-.242 6.02 6.02 0 00-1.098-.093 5.668 5.668 0 00-1.646.233 3.846 3.846 0 00-1.386.718 3.41 3.41 0 00-.93 1.193 3.731 3.731 0 00-.353 1.65c-.002.461.077.918.232 1.352.145.422.402.796.744 1.082.122.105.249.205.381.298.158.104.323.198.493.28l.828.373c.335.149.791.335 1.367.568.335.13.642.28.931.43.282.137.542.316.772.53.221.21.401.46.53.737.137.317.204.661.195 1.007a2.822 2.822 0 01-.167.932c-.109.31-.283.594-.512.83-.266.26-.583.463-.93.597a3.26 3.26 0 01-1.312.242 3.414 3.414 0 01-1.999-.578 3.724 3.724 0 01-1.274-1.445h-.261c-.003.044-.013.098-.024.161-.022.124-.05.285-.05.482-.061.408-.154.81-.279 1.203a5.19 5.19 0 001.674.82 7.044 7.044 0 001.86.252 5.723 5.723 0 002.232-.392 4.437 4.437 0 001.526-1.025 3.94 3.94 0 00.865-1.408c.18-.493.275-1.013.279-1.538a4.95 4.95 0 000-.597 4.705 4.705 0 00-.168-.662 3.566 3.566 0 00-.335-.652 2.983 2.983 0 00-.548-.597 6.624 6.624 0 00-.484-.364 6.224 6.224 0 00-.567-.298 10.654 10.654 0 00-.837-.354l-1.293-.513a8.736 8.736 0 01-.772-.336 3.43 3.43 0 01-.744-.466 2.433 2.433 0 01-.558-.671 2.113 2.113 0 01-.214-.988 2.64 2.64 0 01.093-.644 1.91 1.91 0 01.353-.736c.208-.26.468-.473.763-.625.405-.184.848-.27 1.293-.252.388-.01.776.05 1.144.178.286.105.553.256.79.447.195.172.362.373.493.597zM46.99 88.06c-.195.457-.464 1.11-.808 1.967a25.652 25.652 0 00-1.005 3.16l-.353-.074a1.852 1.852 0 00-.447 0 2.165 2.165 0 00-.465 0l-.39.075.225-.503v-.003c.22-.49.457-1.018.705-1.582l1.07-2.369c.263-.575.527-1.163.794-1.76v-.001l.001-.002.007-.015.001-.003.322-.717c.38-.849.734-1.669 1.078-2.47.298-.694.582-1.366.851-2.006l.126-.298c.307-.727.577-1.389.81-1.976h.716a.993.993 0 00.204 0c.248.69.558 1.501.93 2.433.207.505.421 1.01.644 1.533v.001c.189.444.383.901.584 1.384.312.753.624 1.457.936 2.162l.375.85 1.172 2.666c.344.793.633 1.436.856 1.92l.18.39.001.002v.001c.107.23.163.35.163.363l-.512-.075a4.117 4.117 0 00-.641 0 4.748 4.748 0 00-.68 0l-.567.075a25.299 25.299 0 00-1.06-3.049 61.84 61.84 0 00-.93-2.079h-4.892zm2.447-5.855l-2.056 4.858h4.167l-2.111-4.858zM14.044 93.188l.484-.094c.232-.017.465-.017.698 0 .164-.01.328-.01.493 0l.604.094a2.359 2.359 0 01-.084-.317v-.215c-.13-.792-.26-1.715-.4-2.797-.078-.61-.154-1.234-.232-1.874-.06-.492-.121-.995-.186-1.51a206.693 206.693 0 01-.391-3.412l-.018-.168-.185-1.659c-.066-.584-.13-1.148-.187-1.688h-.69a6.252 6.252 0 01-.213.476c-.066.13-.13.261-.187.391a5.39 5.39 0 01-.148.308l-.056.112-.076.15c-.062.123-.135.266-.213.428l-.53.997-.145.274c-.114.213-.23.431-.348.659l-.558 1.044a15.25 15.25 0 01-.46.881 42.88 42.88 0 00-.256.47l-.995 1.865c-.239.395-.471.845-.72 1.328-.199.383-.407.786-.638 1.199-.178-.28-.39-.651-.649-1.107l-.16-.282a160.545 160.545 0 01-2.279-4.158l-1.125-2.145c-.261-.47-.48-.895-.682-1.283a76.992 76.992 0 00-.248-.479 13.63 13.63 0 01-.53-1.1.77.77 0 01-.205 0h-.186a1.588 1.588 0 01-.335 0 93.38 93.38 0 01-.288 2.443v.003a143.972 143.972 0 01-.519 3.723c-.091.62-.182 1.24-.281 1.868l-.229 1.43v.001l-.18 1.132-.038.238c-.105.664-.196 1.245-.288 1.72-.03.158-.059.299-.084.424-.06.296-.102.5-.102.611a2.71 2.71 0 01.4-.075c.18-.015.36-.015.54 0 .114-.01.229-.01.344 0l.39.094-.003-.29c-.005-.24-.01-.523.003-.848.014-.343.033-.716.053-1.116l.022-.44c.023-.488.061-.996.1-1.53l.02-.27.168-1.865.032-.323c.052-.538.101-1.043.163-1.541.075-.597.149-1.138.223-1.632l.024.041c.32.548.664 1.14 1 1.768l1.06 1.986.272.509a137.156 137.156 0 011.055 2.002c.28.536.551 1.059.812 1.582.169.302.32.613.456.932.073.156.151.334.24.531.068.155.143.323.225.504a.372.372 0 01.14 0h.39a5.01 5.01 0 01.158-.448l.205-.484.27-.597c.092-.224.223-.485.38-.801v-.001a141.902 141.902 0 011.982-3.878 468.239 468.239 0 012.055-3.832c.017.074.04.292.077.635l.016.148c.047.429.103.96.159 1.585.024.275.052.56.082.859.037.379.076.779.113 1.201.026.308.054.609.082.906.04.434.08.86.113 1.285.02.261.036.515.05.761.027.431.052.84.099 1.225.074.606.074 1.081.074 1.436zm9.525-7.636h-2.316c0-.143.028-.295.053-.432.021-.113.04-.215.04-.295v-4.149h3.032l.81.065.641.075.55.093c-.057-.103-.057-.196-.057-.28a3.054 3.054 0 010-.345v-.363c.014-.107.032-.213.056-.317-.493.093-.986.093-1.478.093h-3.526c-.67 0-1.358-.037-2.046-.103l.023.371c.025.377.051.774.051 1.186v4.96c0 .379.006.734.012 1.068v.001c.01.611.018 1.15-.012 1.626-.029.462-.032.873-.036 1.244-.002.22-.003.426-.01.62-.012.32-.03.61-.047.873v.002l-.028.468c-.007.156-.021.31-.035.464a7.4 7.4 0 00-.039.654l2.27-.074h3.497c.454.01.908.047 1.358.112a1.71 1.71 0 01-.056-.625 1.947 1.947 0 01.056-.671c-1.163.121-2.149.205-2.967.205h-2.168v-5.594h1.582c.418 0 .893.019 1.441.047a20.26 20.26 0 011.581.149v-.308a1.484 1.484 0 010-.298 3.616 3.616 0 010-.364c.01-.104.029-.207.056-.307a21.11 21.11 0 01-2.288.149zm7.609 6.517h3.599l.93-.074.8-.112a2.651 2.651 0 00-.065.289 3.548 3.548 0 000 .354v.392a1.6 1.6 0 00.065.28h-7.552c0-.395.03-.781.059-1.158.017-.22.033-.438.043-.651.012-.248.014-.498.016-.747.002-.333.004-.666.03-.997a10.5 10.5 0 00.011-1.164c-.005-.196-.01-.392-.01-.588v-3.87c0-.671 0-1.296-.047-1.864-.023-.285-.023-.56-.023-.818 0-.259 0-.501-.023-.72a4.583 4.583 0 01-.008-.773c.004-.079.008-.148.008-.206l.465.074c.198.018.397.018.595 0 .223.016.447.016.67 0l.558-.074c0 .556-.021 1.075-.04 1.555-.01.237-.02.464-.025.682-.006.218-.008.432-.01.64-.005.425-.009.831-.046 1.225a8.825 8.825 0 00-.012 1.148c.006.187.012.372.012.558v6.619zm8.016-8.019v2.163l.002.64v.006c.004.68.006 1.254-.03 1.741-.046.634-.046 1.202-.046 1.706-.019.497-.037.963-.056 1.399-.018.435-.046.92-.084 1.454l.466-.075c.188-.016.378-.016.567 0a4.48 4.48 0 01.632 0l.577.075c-.047-.364-.047-.718-.047-1.147v-5.416c0-.393-.002-.785-.004-1.176v-.001c-.004-.78-.008-1.556.005-2.32.018-1.146.055-2.312.12-3.486l-.483.084a5.772 5.772 0 01-.642 0 5.399 5.399 0 01-.623 0l-.456-.084c.03.316.03.606.032.872 0 .243.002.465.024.666.046.42.046.764.046 1.128v1.772zm24.917 6.461v-1.258l.047-2.704h3.023c.57.027 1.138.086 1.702.177-.056-.102-.056-.196-.056-.289a2.984 2.984 0 010-.336l-.002-.145v-.003a2.047 2.047 0 01.002-.225.994.994 0 01.027-.139.778.778 0 00.029-.177c-.073.008-.149.019-.227.03-.25.034-.524.072-.815.072h-3.683v-4.82h1.255c.8 0 1.517.037 2.223.093.707.056 1.228.121 1.637.187-.055-.112-.055-.205-.055-.308a3.614 3.614 0 010-.364v-.373l.055-.307a5.314 5.314 0 01-.567.056h-5.851l-.743-.065c.035.255.037.525.04.82.002.242.004.501.025.783.046.625.046 1.212.046 1.865v3.468A100.861 100.861 0 0162 93.187l.465-.075a3.42 3.42 0 01.614 0c.22-.017.44-.017.66 0l.493.075c-.034-.15-.035-.295-.036-.438a1.99 1.99 0 00-.029-.392c-.056-.27-.056-.56-.056-.857v-.989zm7.992-4.298v-5.062c0-.42 0-.932-.056-1.538.15.037.302.064.456.084.204.011.41.011.614 0 .213.012.428.012.641 0l.493-.084a89.349 89.349 0 00-.13 3.486c-.012.764-.008 1.54-.004 2.319.002.392.004.785.004 1.178v4.055c0 .504 0 .932.056 1.361.03.224.028.428.027.623-.002.179-.003.35.02.524l-.577-.075a4.7 4.7 0 00-.633 0 3.239 3.239 0 00-.567 0l-.474.075c.046-.531.074-1.016.093-1.454.006-.148.008-.302.01-.459.004-.31.008-.63.046-.94.036-.305.025-.67.013-1.063a20.468 20.468 0 01-.014-.643c0-.283-.003-.597-.007-.943v-.001c-.005-.429-.011-.907-.011-1.443zm8.768-3.243v2.573c0 .446-.002.893-.004 1.339-.004.885-.008 1.764.004 2.614a89.575 89.575 0 01-.167 3.636c.134-.038.27-.063.41-.075.2-.015.402-.015.604 0h.428c.213.02.483.047.818.103l-.02-.316v-.009l-.001-.008v-.001c-.04-.632-.081-1.26-.081-1.894V80.75c1.172.019 2.083.047 2.734.103.651.055 1.126.102 1.423.158a2.067 2.067 0 01-.056-.317v-.755a1.31 1.31 0 01.056-.298l-1.07.065H79.03c-.151 0-.307.002-.463.004-.314.004-.631.008-.923-.004a14.775 14.775 0 01-.545-.035 7.75 7.75 0 00-.562-.03l.056.298v.755l-.056.317a12.542 12.542 0 011.712-.186c.762-.075 1.59-.075 2.622-.075v2.219zm8.455 1.323v3.729c0 .485 0 .933.056 1.352.03.22.028.433.026.644a4.58 4.58 0 00.02.568c.022.178.023.359.025.542.003.219.005.442.04.67.045.286.055.589.065.915.005.153.01.31.02.475l-.364-.075a2.164 2.164 0 00-.465 0 1.693 1.693 0 00-.427 0l-.326.075c0-.14.014-.319.032-.536v-.001a14.158 14.158 0 00.058-1.15 9.97 9.97 0 01.059-1.101c.053-.434.059-.877.065-1.326v-.001c.002-.178.004-.358.01-.538.012-.43.007-.835.003-1.21v-.004a45.762 45.762 0 01-.004-.51v-7.217h.716l.651.765c.074.096.154.189.234.282.053.06.106.122.157.184.082.1.171.196.268.3.057.06.116.125.179.194l.576.615.772.812a173.1 173.1 0 001.684 1.79l1.265 1.333.986 1.044.874.932.93.933 1.097 1.118v-6.302c0-.7 0-1.37-.074-1.995-.042-.35-.063-.708-.085-1.08a27.658 27.658 0 00-.064-.906l.344.084c.14.016.28.016.419 0 .148.015.298.015.446 0l.39-.084a42.931 42.931 0 00-.287 4.242c-.019.96-.013 1.879-.007 2.81.004.472.007.947.007 1.432v4.065c0 .448 0 .848.046 1.203h-.679l-.483-.56c-.18-.218-.384-.449-.614-.71l-.14-.157-.93-1.025-.995-1.063-.93-.998-.79-.783a7.993 7.993 0 01-.502-.475h-.001a25.166 25.166 0 01-.493-.504l-3.813-3.971-.047 1.174zm17.466 1.259h-2.316a6.01 6.01 0 00-.021-.431c-.008-.114-.016-.216-.016-.296v-4.149h3.041l.81.065.632.075.558.093a1.898 1.898 0 01-.056-.28 1.808 1.808 0 010-.345 2.452 2.452 0 010-.363 1.79 1.79 0 01.056-.317c-.493.093-.995.093-1.488.093h-3.507c-.669 0-1.348-.037-2.036-.103.065.485.065 1.007.065 1.557v4.96c0 .38.007.735.013 1.07.012.61.023 1.149-.013 1.625-.037.484-.042.911-.046 1.296-.002.2-.004.39-.01.568-.006.161-.007.314-.008.46-.003.327-.006.618-.057.883-.075.382-.075.755-.075 1.118l2.26-.074h3.628c.454.01.908.047 1.358.112-.065-.103-.065-.196-.065-.29a2.684 2.684 0 010-.335 3.675 3.675 0 010-.363c.007-.038.017-.075.028-.112.018-.063.037-.126.037-.196-1.116.121-2.158.205-2.976.205h-2.168v-5.594h1.582c.418 0 .902.019 1.451.047a20.75 20.75 0 011.581.149v-.308a1.484 1.484 0 010-.298 2.008 2.008 0 010-.364c.009-.104.028-.207.055-.307-.762.09-1.529.14-2.297.149zm12.177-3.431a4.256 4.256 0 00-.288-.597 2.449 2.449 0 00-.493-.597 2.786 2.786 0 00-.791-.447 3.274 3.274 0 00-1.144-.177 2.779 2.779 0 00-1.292.251 2.343 2.343 0 00-.763.625 2.08 2.08 0 00-.363.736c-.05.211-.078.427-.084.644-.013.344.057.686.205.997.138.26.328.488.558.672.226.188.476.345.744.466.251.126.509.238.772.335l1.293.513c.282.104.558.222.828.354.195.088.384.188.567.299.171.11.336.232.493.363.209.173.394.374.549.597.134.204.243.423.325.653.081.213.137.435.168.662.033.197.048.396.046.596 0 .525-.092 1.045-.269 1.538a4.206 4.206 0 01-.866 1.408 4.524 4.524 0 01-1.525 1.026 5.772 5.772 0 01-2.241.391 6.98 6.98 0 01-1.861-.251 5.194 5.194 0 01-1.674-.82 8.86 8.86 0 00.279-1.203c0-.198.029-.358.051-.482.011-.064.021-.118.024-.162h.251a3.816 3.816 0 001.265 1.464c.59.396 1.289.598 1.999.578a3.3 3.3 0 001.312-.242c.349-.13.666-.333.93-.597a2.28 2.28 0 00.521-.83c.108-.299.165-.614.167-.932a2.37 2.37 0 00-.195-1.007 2.438 2.438 0 00-.53-.736 3.329 3.329 0 00-.772-.532 10.94 10.94 0 00-.93-.429l-1.368-.569-.818-.372a3.5 3.5 0 01-.874-.578 2.347 2.347 0 01-.744-1.082 3.967 3.967 0 01-.233-1.352 3.74 3.74 0 01.344-1.65c.224-.459.54-.865.93-1.193a4.012 4.012 0 011.386-.718 5.735 5.735 0 011.656-.233c.365-.003.729.028 1.088.093.315.061.625.142.93.242.262.074.517.171.763.29.172.08.339.171.502.27l-.149.307-.006.014a4.501 4.501 0 00-.171.406 7.027 7.027 0 00-.158.503c-.045.168-.073.34-.083.513l-.261-.018zM60.866 3.268c-5.431 1.258-8.622 7.635-7.124 14.31.639 2.84 3.161 7.42 6.004 11.709A2.505 2.505 0 0163 31.68a2.5 2.5 0 01-.512 1.522 68.545 68.545 0 002.65 3.371 47.704 47.704 0 00-.021-.302c.033.109.065.221.097.338l.125-.05-.117.08c1.602 5.875 2.32 21.01.053 26.203a12.528 12.528 0 01-6.9 6.657 12.487 12.487 0 01-9.577-.183 12.53 12.53 0 01-6.642-6.917 12.57 12.57 0 01.183-9.598 23.304 23.304 0 014.325-5.771 18.349 18.349 0 00-2.046 3.375c-2.735 6.265-.81 13.154 4.297 15.392 5.106 2.237 11.459-1.035 14.184-7.3 1.876-4.3 2.468-15.143 2.046-21.807-4.972 3.284-19.376 8.597-25.049 7.98a12.504 12.504 0 01-8.404-4.601 12.562 12.562 0 011.894-17.635 12.491 12.491 0 019.19-2.703c2.38.438 4.678 1.25 6.807 2.406a18.29 18.29 0 00-3.822-.933c-6.79-.736-12.78 3.16-13.375 8.717-.595 5.557 4.418 10.647 11.208 11.384 4.702.507 15.368-2.234 21.548-4.667l-.002-.024c-.9-.69-1.99-1.694-3.17-2.903-.413.301-.92.479-1.47.479-1.38 0-2.5-1.124-2.5-2.51 0-.638.237-1.22.628-1.664-4.183-4.94-8.413-11.098-9.211-14.666a12.568 12.568 0 011.632-9.46A12.514 12.514 0 0158.876.36a12.488 12.488 0 019.437 1.636 12.542 12.542 0 015.519 7.846 23.262 23.262 0 01-.075 7.225 18.772 18.772 0 00-.334-3.934C71.925 6.457 66.298 2.01 60.866 3.269zm28.526 56.135c3.45-4.419 1.897-11.374-3.46-15.607-3.679-2.919-14.031-6.241-20.543-7.518l-.04.068.023-.072a52.079 52.079 0 00-.349-.067c.12-.004.245-.007.372-.009 1.787-5.662 9.698-18.954 14.52-22.06a12.493 12.493 0 0117.29 3.767 12.558 12.558 0 011.703 9.446 12.557 12.557 0 01-5.46 7.886 22.974 22.974 0 01-6.8 2.415 18.496 18.496 0 003.572-1.67c5.739-3.691 7.915-10.497 4.94-15.196-2.977-4.699-10.074-5.538-15.813-1.809-3.983 2.57-10.582 11.454-13.912 17.221 6.086-.059 20.833 3.084 25.268 6.591a12.567 12.567 0 012.065 17.62 12.495 12.495 0 01-17.579 2.07 23.02 23.02 0 01-4.483-5.658 18.808 18.808 0 002.735 2.843c5.357 4.242 12.5 4.158 15.95-.26zM69 27.161a1.001 1.001 0 11-1-1.003c.552 0 1 .45 1 1.003zM36 48.245c.552 0 1-.45 1-1.003a1.001 1.001 0 10-1 1.003zM65 26.66c0 .831-.672 1.506-1.5 1.506S62 27.492 62 26.66c0-.831.672-1.506 1.5-1.506s1.5.675 1.5 1.506zM40.5 50.255c.828 0 1.5-.674 1.5-1.506s-.672-1.506-1.5-1.506-1.5.674-1.5 1.506.672 1.506 1.5 1.506z" fill="#8C6D3B"/></svg>