<svg width="76" height="55" viewBox="0 0 76 55" fill="none" xmlns="http://www.w3.org/2000/svg">
<path fill-rule="evenodd" clip-rule="evenodd" d="M75.0647 47.7269C75.132 47.8377 75.1884 47.9547 75.2333 48.0764L75.3692 48.071C75.3799 47.9696 75.3981 47.8692 75.4236 47.7706C75.4479 47.6704 75.4787 47.5718 75.516 47.4757L75.5256 47.4484C75.5542 47.3667 75.5796 47.2939 75.6139 47.2299C75.6251 47.2091 75.6371 47.1893 75.6487 47.1703C75.6764 47.1247 75.7009 47.0845 75.7009 47.0498C75.6085 46.9905 75.5122 46.9376 75.4127 46.8914C75.2685 46.8239 75.1194 46.7673 74.9668 46.7221C74.7885 46.664 74.607 46.6166 74.4231 46.5801C74.2113 46.5422 73.9966 46.524 73.7815 46.5255C73.4557 46.5234 73.1315 46.5694 72.8191 46.662C72.5233 46.7452 72.2475 46.8883 72.0089 47.0825C71.7779 47.2718 71.5921 47.5106 71.4651 47.7815C71.3236 48.0836 71.2529 48.4143 71.2585 48.7481C71.2576 49.018 71.3036 49.286 71.3945 49.54C71.4789 49.7872 71.6294 50.0063 71.8294 50.1734C71.9008 50.2354 71.9752 50.2938 72.0524 50.3482C72.1447 50.4092 72.241 50.464 72.3406 50.512L72.8245 50.7305C73.0202 50.8179 73.2867 50.9271 73.6238 51.0636C73.8195 51.14 73.999 51.2274 74.1675 51.3148C74.3326 51.3954 74.4847 51.5003 74.6189 51.6261C74.7482 51.7491 74.8534 51.8954 74.9288 52.0575C75.0093 52.2434 75.0483 52.4447 75.043 52.6473C75.0415 52.8336 75.0084 53.0183 74.9451 53.1934C74.8819 53.3754 74.7798 53.5412 74.646 53.6794C74.4904 53.832 74.3054 53.9509 74.1023 54.0289C73.8592 54.1287 73.5982 54.1771 73.3356 54.1709C72.9204 54.1827 72.5118 54.0643 72.1666 53.8323C71.8486 53.6207 71.5917 53.3288 71.4216 52.9859H71.2694C71.2675 53.0118 71.262 53.0433 71.2554 53.0804C71.2425 53.153 71.2259 53.2471 71.2259 53.3627C71.1903 53.6015 71.1357 53.8371 71.0627 54.0672C71.3575 54.2853 71.689 54.4482 72.0415 54.5477C72.3958 54.6453 72.7616 54.6949 73.129 54.6952C73.5748 54.7066 74.0185 54.6286 74.434 54.4658C74.7697 54.3302 75.0734 54.1256 75.3257 53.8651C75.5507 53.6294 75.7231 53.3483 75.8314 53.0405C75.937 52.7518 75.9922 52.447 75.9945 52.1394C76.002 52.0231 76.002 51.9063 75.9945 51.7899C75.9715 51.6584 75.9388 51.5288 75.8966 51.4022C75.8445 51.2684 75.7789 51.1403 75.7009 51.0199C75.6103 50.8893 75.5024 50.7717 75.3801 50.6704C75.2822 50.5885 75.1844 50.5175 75.0974 50.4574C74.9899 50.3935 74.8791 50.3351 74.7656 50.2827C74.6351 50.2171 74.472 50.1516 74.2763 50.0752L73.5205 49.7748C73.3737 49.7202 73.2269 49.6547 73.0692 49.5782C72.9132 49.5062 72.767 49.4144 72.6342 49.3052C72.5028 49.1949 72.3923 49.0616 72.3079 48.9119C72.2203 48.732 72.1774 48.5333 72.1829 48.3331C72.1856 48.2057 72.2038 48.0792 72.2373 47.9563C72.2745 47.7992 72.345 47.6521 72.4439 47.5249C72.5651 47.3727 72.7171 47.248 72.8898 47.159C73.1268 47.0513 73.3856 47.0008 73.6455 47.0115C73.8729 47.0056 74.0994 47.0407 74.3144 47.1153C74.4816 47.1767 74.6378 47.2653 74.7765 47.3774C74.8905 47.4778 74.9878 47.5958 75.0647 47.7269ZM27.4704 51.5552C27.3562 51.8227 27.1985 52.205 26.9973 52.7074C26.7619 53.3111 26.5658 53.9294 26.41 54.5586L26.2034 54.5149C26.1168 54.5044 26.0291 54.5044 25.9424 54.5149C25.8521 54.5052 25.7609 54.5052 25.6706 54.5149L25.4422 54.5586L25.5745 54.2625L25.5747 54.2622C25.7029 53.9755 25.8415 53.6659 25.9859 53.3354L26.6112 51.9483C26.7655 51.6114 26.9198 51.2661 27.076 50.9166L27.2005 50.6381L27.2692 50.4848C27.4921 49.9879 27.6987 49.5074 27.8999 49.0377C28.0737 48.632 28.2394 48.2385 28.397 47.8643L28.4708 47.6889C28.6503 47.263 28.808 46.8753 28.9439 46.5313H29.0798H29.2321H29.3626C29.4024 46.5352 29.4424 46.5352 29.4822 46.5313C29.6272 46.9354 29.8085 47.4104 30.026 47.9565C30.1467 48.2521 30.2721 48.5477 30.4024 48.8546L30.4024 48.8548C30.5127 49.1147 30.6265 49.3828 30.7437 49.6657C30.9262 50.1064 31.1087 50.5193 31.2913 50.9321C31.3643 51.0973 31.4373 51.2626 31.5104 51.4296L32.1955 52.9914C32.3967 53.4555 32.5652 53.8323 32.6957 54.1163C32.7373 54.2068 32.7728 54.2834 32.8019 54.3461C32.8641 54.4803 32.8969 54.5512 32.8969 54.5586L32.5979 54.5149C32.473 54.5051 32.3476 54.5051 32.2227 54.5149C32.0905 54.5054 31.9579 54.5054 31.8258 54.5149L31.4941 54.5586C31.3256 53.9507 31.1185 53.3543 30.8742 52.7729C30.6621 52.2814 30.4827 51.8719 30.3305 51.5552H27.4704ZM28.9004 48.1258L27.6987 50.9709H30.1347L28.9004 48.1258ZM8.16705 53.7176C8.21054 54.0725 8.21054 54.351 8.21054 54.5586L8.4933 54.504C8.62904 54.4935 8.76537 54.4935 8.90111 54.504C8.99708 54.4979 9.09333 54.4979 9.18929 54.504L9.54273 54.5586C9.52211 54.4979 9.50576 54.4359 9.49379 54.3729V54.2473C9.41767 53.7831 9.34155 53.2425 9.25998 52.6091C9.21406 52.2524 9.16986 51.8888 9.12446 51.5153L9.12428 51.5138L9.12409 51.5122L9.12404 51.5118L9.12399 51.5114C9.08892 51.2229 9.05313 50.9284 9.01529 50.6268C8.93239 49.9659 8.85937 49.2951 8.78681 48.6286L8.7868 48.6285L8.78677 48.6283L8.77604 48.5298C8.7397 48.1961 8.70336 47.8723 8.6682 47.5591L8.66809 47.5582L8.66806 47.5579C8.62962 47.2155 8.5926 46.8857 8.55855 46.5693H8.43892H8.25949H8.15618C8.11268 46.6786 8.06918 46.7714 8.03111 46.8478L8.03082 46.8484C7.99285 46.9247 7.9549 47.0009 7.92236 47.0772C7.8981 47.134 7.86784 47.1939 7.83603 47.2568L7.83591 47.257L7.83586 47.2571L7.83582 47.2572L7.83576 47.2573L7.83569 47.2574C7.82482 47.2789 7.81378 47.3008 7.80273 47.3229C7.78941 47.3497 7.77455 47.379 7.75847 47.4108C7.72207 47.4826 7.67943 47.5668 7.63417 47.6615L7.32425 48.2458C7.29629 48.2987 7.26782 48.3521 7.23901 48.4061L7.23897 48.4062C7.17256 48.5307 7.10432 48.6586 7.03607 48.7919L6.70982 49.4035C6.63215 49.5707 6.5419 49.7353 6.44079 49.9197L6.4407 49.9199C6.39318 50.0066 6.34326 50.0976 6.29112 50.1954L5.70933 51.2875C5.56997 51.5188 5.43398 51.7822 5.28821 52.0646L5.28802 52.065L5.28798 52.0651L5.28793 52.0652L5.28776 52.0655C5.17203 52.2897 5.05012 52.5259 4.91545 52.7674C4.81112 52.6034 4.68787 52.3862 4.53624 52.119L4.44239 51.9538C4.24664 51.6097 4.03459 51.2274 3.80622 50.8124C3.57784 50.3974 3.34403 49.966 3.11022 49.5182L2.45228 48.2622C2.29987 47.9867 2.17148 47.738 2.05403 47.5104L2.05384 47.51C2.00376 47.413 1.95566 47.3198 1.90854 47.2301C1.75085 46.9297 1.65299 46.7168 1.59861 46.5857C1.55891 46.591 1.51869 46.591 1.47899 46.5857H1.37023C1.30516 46.5926 1.23956 46.5926 1.17449 46.5857C1.13099 47.0062 1.0766 47.4704 1.00592 48.0165L1.00561 48.0188C0.935027 48.5641 0.86444 49.1094 0.782995 49.6547C0.755823 49.8366 0.729253 50.018 0.702684 50.1993L0.70267 50.1994C0.649492 50.5623 0.596313 50.9252 0.538303 51.293C0.491966 51.5867 0.447171 51.8666 0.40474 52.1316C0.367505 52.3642 0.332091 52.5854 0.299053 52.7947L0.277145 52.9337L0.277134 52.9338C0.215805 53.3231 0.162271 53.6629 0.108739 53.9415C0.091011 54.0338 0.0742391 54.1164 0.059414 54.1895C0.0242217 54.363 0 54.4823 0 54.5477C0.0766735 54.527 0.154848 54.5123 0.233807 54.504C0.338738 54.4949 0.44424 54.4949 0.549172 54.504C0.616096 54.4979 0.68343 54.4979 0.750355 54.504L0.978735 54.5586C0.978735 54.5071 0.977727 54.4505 0.976632 54.3889C0.974129 54.2484 0.971171 54.0823 0.978735 53.8924C0.986739 53.6914 0.997685 53.4727 1.00941 53.2384L1.02223 52.9804C1.0362 52.695 1.05816 52.3976 1.08127 52.0847L1.09292 51.9265L1.1908 50.8343L1.20929 50.6447C1.23994 50.3294 1.26867 50.0339 1.30499 49.7421C1.34849 49.3926 1.39198 49.0759 1.43548 48.7864L1.44948 48.8105C1.6359 49.1315 1.83734 49.4783 2.0336 49.8459C2.23479 50.2227 2.4414 50.6104 2.65346 51.009C2.70542 51.1067 2.75739 51.2041 2.80935 51.3014L2.8126 51.3075L2.81279 51.3078C2.97174 51.6056 3.1307 51.9034 3.28965 52.2104L3.42933 52.4796C3.59247 52.7937 3.75158 53.1 3.90409 53.4063C4.00274 53.5833 4.09168 53.7656 4.17052 53.9524C4.21289 54.0436 4.25863 54.1466 4.30961 54.2615L4.30982 54.262L4.31029 54.263L4.31053 54.2636C4.35089 54.3545 4.39453 54.4529 4.44239 54.5586C4.46933 54.5534 4.497 54.5534 4.52395 54.5586H4.58921H4.75233C4.77952 54.4658 4.81215 54.3784 4.84477 54.2964L4.96438 54.0125L5.12207 53.663C5.1764 53.5321 5.25243 53.3793 5.34476 53.1939L5.34479 53.1938L5.34486 53.1937L5.34493 53.1935L5.34501 53.1934C5.72201 52.4252 6.10807 51.668 6.50319 50.9216C6.89831 50.1753 7.29887 49.4272 7.70486 48.6772C7.71443 48.7205 7.72822 48.8483 7.74992 49.0496L7.75924 49.136C7.78643 49.3872 7.81906 49.6984 7.85169 50.0643C7.86604 50.2253 7.8825 50.3926 7.89968 50.5673L7.89969 50.5674C7.92155 50.7896 7.94456 51.0235 7.96587 51.2711C7.98135 51.4511 7.99774 51.6275 8.01392 51.8017L8.01395 51.8019C8.03754 52.0558 8.0607 52.3051 8.08005 52.5544C8.09191 52.7073 8.1009 52.8558 8.10962 53C8.12489 53.2525 8.13936 53.4917 8.16705 53.7176ZM13.7789 50.0853H12.425C12.425 50.0014 12.4413 49.9127 12.4561 49.8325C12.4682 49.7664 12.4793 49.7062 12.4793 49.6593V49.348V47.8026V47.535V47.2292H13.0612H13.6049H14.252L14.725 47.2674L15.1002 47.3111L15.421 47.3657C15.3884 47.3056 15.3884 47.251 15.3884 47.2019C15.3846 47.1346 15.3846 47.0671 15.3884 46.9998V46.7868C15.3961 46.7244 15.407 46.6625 15.421 46.6012C15.1329 46.6558 14.8447 46.6558 14.5566 46.6558H14.5565H13.6865H12.4957C12.1042 46.6558 11.7018 46.6339 11.2994 46.5957C11.3014 46.6306 11.3036 46.6658 11.3059 46.7013L11.3131 46.8123L11.3131 46.8125L11.3131 46.8128L11.3131 46.8129C11.3276 47.0338 11.3429 47.2661 11.3429 47.5077V48.4961V49.4955V50.4129C11.3429 50.635 11.3463 50.8434 11.3495 51.0392V51.0392C11.3553 51.397 11.3605 51.7123 11.3429 51.9911C11.3258 52.262 11.3238 52.5027 11.3219 52.7201C11.3208 52.8489 11.3198 52.9695 11.3157 53.0833C11.3091 53.2711 11.2983 53.4403 11.2884 53.5949L11.2884 53.595L11.2884 53.5951C11.2822 53.6922 11.2764 53.7834 11.2722 53.8697C11.2678 53.9613 11.2597 54.0519 11.2517 54.1417C11.2401 54.2714 11.2287 54.3992 11.2287 54.525L12.5555 54.4813H13.8768H14.5999C14.8656 54.4871 15.1308 54.509 15.3938 54.5469C15.3782 54.4915 15.3673 54.4348 15.3612 54.3776C15.3548 54.3122 15.3548 54.2464 15.3612 54.181C15.3549 54.1101 15.3549 54.0389 15.3612 53.968C15.3673 53.9072 15.3782 53.8469 15.3938 53.7878C14.7141 53.8588 14.1378 53.908 13.6593 53.908H12.3923V53.5912V53.1325V52.6192V52.1331V51.3795V50.6314H12.8491H13.3167C13.5614 50.6314 13.8387 50.6423 14.1595 50.6587C14.4803 50.6751 14.7903 50.7078 15.0839 50.746V50.5658C15.0783 50.5077 15.0783 50.4492 15.0839 50.3911C15.0803 50.3201 15.0803 50.249 15.0839 50.1781C15.0895 50.1172 15.1004 50.0569 15.1165 49.9979C14.6725 50.0513 14.226 50.0805 13.7789 50.0853ZM18.226 53.9037H18.8567H19.7865H20.3303L20.874 53.86L21.3417 53.7944C21.3258 53.8501 21.3131 53.9066 21.3036 53.9637C21.3001 54.0328 21.3001 54.1021 21.3036 54.1712V54.4006C21.3112 54.4563 21.324 54.5111 21.3417 54.5645H20.7979H20.2542H19.6397H18.1988H17.7366H17.3451H16.9264C16.9264 54.3336 16.9438 54.1071 16.9606 53.8864C16.9705 53.7572 16.9802 53.63 16.9863 53.505C16.9932 53.3599 16.9942 53.2137 16.9952 53.0674C16.9966 52.8725 16.9979 52.6772 17.0134 52.4838C17.0315 52.2583 17.0255 52.0303 17.0195 51.8016C17.0165 51.6869 17.0134 51.572 17.0134 51.4571V50.3649V49.1907V49.1905C17.0134 48.7974 17.0134 48.4316 16.9863 48.0985C16.9727 47.932 16.9727 47.7709 16.9727 47.6193C16.9727 47.4678 16.9727 47.3258 16.9591 47.1974C16.9396 47.014 16.948 46.8612 16.9543 46.7451C16.9569 46.6988 16.9591 46.6583 16.9591 46.624L17.2309 46.6677C17.3467 46.6779 17.4632 46.6779 17.5789 46.6677C17.7093 46.6772 17.8401 46.6772 17.9704 46.6677L18.2967 46.624C18.2967 46.9499 18.2845 47.2536 18.2731 47.5353C18.2676 47.6738 18.2622 47.8069 18.2586 47.9347C18.255 48.0624 18.2538 48.1871 18.2526 48.3092V48.3093V48.3093V48.3094V48.3095V48.3095V48.3096V48.3097V48.3097V48.3098C18.2502 48.5584 18.2479 48.7963 18.226 49.0269C18.2042 49.2569 18.2115 49.4796 18.2188 49.6998C18.2224 49.8091 18.226 49.9177 18.226 50.0263V51.0857V52.3254V53.9037ZM22.9136 49.2061V50.4732C22.9136 50.605 22.9142 50.731 22.9148 50.8513C22.9166 51.2494 22.9182 51.5861 22.8973 51.8713C22.8701 52.2426 22.8701 52.5757 22.8701 52.8706V52.8708C22.8593 53.1621 22.8484 53.4351 22.8375 53.69C22.8266 53.9449 22.8103 54.2289 22.7886 54.542L23.0604 54.4983C23.1708 54.4886 23.2818 54.4886 23.3921 54.4983C23.5152 54.4896 23.6388 54.4896 23.7619 54.4983L24.099 54.542C24.0718 54.329 24.0718 54.1216 24.0718 53.8704V53.8702V53.0728V52.0516V50.6971C24.0718 50.4679 24.0706 50.2387 24.0694 50.01V50.0097V50.0093V50.009V50.0087V50.0084V50.0081V50.0077C24.067 49.5508 24.0646 49.0963 24.0718 48.649C24.0827 47.9773 24.1044 47.2946 24.1425 46.6064L23.8597 46.6556C23.7348 46.6626 23.6095 46.6626 23.4846 46.6556C23.3632 46.6626 23.2416 46.6626 23.1203 46.6556L22.8538 46.6064C22.8708 46.7917 22.8716 46.962 22.8723 47.1175C22.8729 47.26 22.8734 47.39 22.8864 47.5076C22.9136 47.7533 22.9136 47.9553 22.9136 48.1683V48.1684V48.7146V49.2061ZM37.4804 52.9903V52.2531L37.5076 50.6694H37.9426H38.4103H39.2748C39.6082 50.6853 39.9404 50.72 40.2699 50.7732C40.2372 50.7131 40.2372 50.6585 40.2372 50.6039C40.2336 50.5384 40.2336 50.4727 40.2372 50.4073C40.2372 50.3763 40.2366 50.3474 40.2359 50.3203V50.3202C40.2348 50.2709 40.2337 50.2276 40.2372 50.1888C40.2396 50.1623 40.2463 50.1348 40.2529 50.1071C40.2614 50.072 40.2699 50.0367 40.2699 50.0032C40.2272 50.0083 40.1831 50.0145 40.1375 50.0208C39.9913 50.041 39.8308 50.0632 39.6609 50.0632H38.9649H37.5076V49.681V49.3697V47.8188V47.5457V47.2399H37.8883H38.2417C38.7093 47.2399 39.128 47.2618 39.5412 47.2945C39.9545 47.3273 40.259 47.3655 40.4982 47.4037C40.4656 47.3382 40.4656 47.2836 40.4656 47.2235C40.462 47.1526 40.462 47.0815 40.4656 47.0106V46.7921L40.4982 46.6119C40.3883 46.6288 40.2776 46.6397 40.1666 46.6447H39.7424H39.1008H37.1433H36.7464L36.3114 46.6064C36.3323 46.7562 36.3335 46.9143 36.3349 47.0868C36.336 47.2288 36.3372 47.3806 36.3495 47.5457C36.3766 47.9116 36.3766 48.2556 36.3766 48.6379V49.7301V50.6694C36.3766 51.4176 36.3603 52.1056 36.3386 52.7336C36.3168 53.3617 36.2842 53.9678 36.2462 54.5576L36.518 54.5139C36.6374 54.5032 36.7575 54.5032 36.8769 54.5139C37.0054 54.5035 37.1345 54.5035 37.263 54.5139L37.5511 54.5576C37.5314 54.4696 37.5307 54.3846 37.53 54.301C37.5294 54.2237 37.5287 54.1476 37.5131 54.0716C37.4804 53.9132 37.4804 53.7439 37.4804 53.5692V52.9903ZM42.1525 50.4732V49.2061V48.7146V48.1684V47.5076C42.1525 47.2618 42.1525 46.9614 42.1198 46.6064C42.2076 46.6281 42.2966 46.6445 42.3863 46.6556C42.5058 46.6626 42.6256 46.6626 42.7451 46.6556C42.8701 46.6628 42.9954 46.6628 43.1203 46.6556L43.4085 46.6064C43.3704 47.2946 43.3433 47.9773 43.3324 48.649C43.3252 49.0959 43.3276 49.5501 43.33 50.0067V50.0069V50.0071V50.0073V50.0075V50.0077C43.3312 50.2371 43.3324 50.4671 43.3324 50.6971V52.0516V53.0728V53.073C43.3324 53.3678 43.3324 53.619 43.365 53.8702C43.3821 54.0016 43.3813 54.1209 43.3806 54.2354C43.3799 54.3399 43.3792 54.4403 43.3922 54.542L43.0551 54.4983C42.932 54.49 42.8084 54.49 42.6853 54.4983C42.575 54.4886 42.464 54.4886 42.3536 54.4983L42.0763 54.542C42.1035 54.2307 42.1198 53.9467 42.1307 53.69C42.1344 53.6037 42.1356 53.5136 42.1368 53.4217V53.4215C42.1392 53.2403 42.1417 53.0519 42.1633 52.8708C42.1847 52.6921 42.1781 52.4784 42.171 52.2479V52.2478C42.1672 52.1261 42.1633 51.9997 42.1633 51.8713C42.1633 51.7053 42.1612 51.5218 42.1587 51.3188L42.1587 51.3181C42.1558 51.0673 42.1525 50.7869 42.1525 50.4732ZM47.2775 48.5737V50.0811C47.2775 50.3424 47.2763 50.6044 47.2751 50.8653C47.2726 51.3841 47.2702 51.8988 47.2775 52.3967C47.2557 53.1831 47.2231 53.8931 47.1796 54.5266C47.2578 54.5044 47.3379 54.4898 47.4189 54.4829C47.5365 54.4739 47.6547 54.4739 47.7723 54.4829H48.0224C48.1475 54.4938 48.3052 54.5102 48.5009 54.543L48.4885 54.3478L48.4885 54.3477C48.4647 53.9772 48.4411 53.6094 48.4411 53.2377V51.9543V50.7364V49.6442V48.4645V47.2739C49.1262 47.2848 49.6591 47.3012 50.0397 47.334C50.4203 47.3668 50.6976 47.3941 50.8716 47.4269C50.856 47.3659 50.8451 47.3038 50.839 47.2412V47.0227V46.7988C50.8431 46.7395 50.854 46.6808 50.8716 46.624L50.2464 46.6623H49.4905H46.2009C46.1512 46.6623 46.1008 46.6626 46.05 46.6632L45.9304 46.6647C45.7468 46.6671 45.5614 46.6696 45.3907 46.6623C45.2767 46.6574 45.1704 46.6493 45.072 46.6417C44.9498 46.6324 44.84 46.624 44.7436 46.624L44.7762 46.7988V47.0227V47.2412L44.7436 47.4269C45.0742 47.3676 45.4085 47.3311 45.7441 47.3176C46.19 47.2739 46.6739 47.2739 47.2775 47.2739V48.5737ZM52.2214 49.3479V50.5765V51.5321C52.2214 51.8161 52.2214 52.0782 52.2541 52.3239C52.2711 52.4522 52.2703 52.5776 52.2696 52.7007C52.2689 52.8134 52.2682 52.9242 52.2812 53.0338C52.2936 53.1382 52.2947 53.2438 52.2958 53.351C52.2972 53.4792 52.2986 53.6099 52.3193 53.7437C52.3452 53.9111 52.351 54.0886 52.3571 54.2797V54.2798C52.36 54.3692 52.363 54.4616 52.3682 54.5574L52.1562 54.5137C52.0658 54.5039 51.9747 54.5039 51.8843 54.5137C51.8013 54.5031 51.7172 54.5031 51.6342 54.5137L51.4439 54.5574C51.4439 54.4753 51.4523 54.3711 51.4626 54.244C51.4708 54.1429 51.4801 54.0273 51.4874 53.8966C51.4932 53.7911 51.4949 53.6822 51.4966 53.5694C51.4997 53.3671 51.5029 53.1526 51.5309 52.9246C51.562 52.6707 51.5653 52.4111 51.5686 52.148C51.5699 52.0434 51.5713 51.9382 51.5744 51.8325C51.5818 51.5803 51.5791 51.3432 51.5767 51.123L51.5766 51.1219C51.5755 51.0182 51.5744 50.9183 51.5744 50.8223V50.238V49.3752V48.5179V47.9718V46.5957H51.6668H51.8625H51.993L52.3737 47.0435C52.4165 47.0997 52.4633 47.154 52.5105 47.2086L52.5108 47.209L52.511 47.2093C52.5415 47.2446 52.5722 47.2802 52.602 47.3165C52.6499 47.3749 52.7021 47.4311 52.7586 47.492C52.7919 47.5279 52.8267 47.5654 52.863 47.6059L53.2002 47.9663L53.6515 48.4414C54.0321 48.851 54.3583 49.2004 54.6357 49.4899L55.3751 50.2707L55.9515 50.8823L56.4626 51.4284L57.0064 51.9745L57.648 52.6297V50.3308V48.9383C57.648 48.5288 57.648 48.1356 57.6045 47.7698C57.5801 47.5649 57.5677 47.355 57.5548 47.137C57.5447 46.9656 57.5343 46.7893 57.5175 46.6066L57.7187 46.6558C57.8 46.665 57.8821 46.665 57.9634 46.6558C58.0502 46.6643 58.1376 46.6643 58.2244 46.6558L58.4527 46.6066C58.3549 47.4421 58.3005 48.2448 58.2842 49.0912C58.2733 49.6535 58.2769 50.1916 58.2805 50.7376V50.7385V50.7393L58.2805 50.7401C58.2823 51.0153 58.2842 51.2925 58.2842 51.5758V52.3185V53.1485V53.9567V53.9569C58.2842 54.2189 58.2842 54.4537 58.3113 54.6611H58.1972H58.0069H57.9144L57.6317 54.3335C57.5273 54.2059 57.4079 54.0708 57.2733 53.9185L57.2729 53.9181L57.1912 53.8256L56.6475 53.225L56.0657 52.6024L55.522 52.0182L55.0598 51.5595C54.9565 51.4721 54.864 51.3793 54.7662 51.281L54.766 51.2808C54.6682 51.1826 54.5758 51.0898 54.478 50.9861L52.2486 48.6599L52.2214 49.3479ZM62.4312 50.0853H61.0772C61.0772 50.0014 61.0707 49.9127 61.0648 49.8325C61.0622 49.7975 61.0598 49.7642 61.058 49.7336C61.0565 49.7064 61.0555 49.6814 61.0555 49.6593V49.348V47.8026V47.535V47.2292H61.6427H62.1865H62.8335L63.3066 47.2674L63.6764 47.3111L64.0026 47.3657C63.9876 47.312 63.9767 47.2572 63.97 47.2019C63.9634 47.1347 63.9634 47.067 63.97 46.9998C63.9643 46.9289 63.9643 46.8577 63.97 46.7868C63.9751 46.7241 63.986 46.6619 64.0026 46.6012C63.7145 46.6558 63.4209 46.6558 63.1327 46.6558H63.1326H62.268H61.0827C60.6912 46.6558 60.2943 46.6339 59.8919 46.5957C59.9299 46.8797 59.9299 47.1855 59.9299 47.5077V48.4961V49.4955V50.4129C59.9299 50.6348 59.934 50.8431 59.9378 51.0387L59.9379 51.0392C59.9449 51.3969 59.951 51.7123 59.9299 51.9911C59.9085 52.2746 59.9059 52.525 59.9035 52.7502V52.7504C59.9022 52.8679 59.9011 52.9785 59.8973 53.0833C59.894 53.1776 59.8932 53.2671 59.8925 53.3525C59.8908 53.5442 59.8894 53.7148 59.8593 53.8697C59.8158 54.0936 59.8158 54.3121 59.8158 54.525L61.137 54.4813H62.4638H63.2577C63.5234 54.4871 63.7885 54.509 64.0515 54.5469C64.0135 54.4868 64.0135 54.4322 64.0135 54.3776C64.0098 54.3121 64.0098 54.2465 64.0135 54.181C64.0099 54.1101 64.0099 54.039 64.0135 53.968C64.0175 53.9457 64.0238 53.9242 64.0301 53.9026C64.0408 53.8659 64.0515 53.829 64.0515 53.7878C63.3991 53.8588 62.7901 53.908 62.3116 53.908H61.0446V53.5912V53.1325V52.6192V52.1331V51.3795V50.6314H61.5014H61.969C62.2137 50.6314 62.4964 50.6423 62.8172 50.6587C63.138 50.6751 63.4425 50.7078 63.7416 50.746V50.5658C63.736 50.5077 63.736 50.4492 63.7416 50.3911C63.7353 50.3202 63.7353 50.2489 63.7416 50.1781C63.7472 50.1172 63.7581 50.0569 63.7742 49.9979C63.3284 50.0513 62.8801 50.0805 62.4312 50.0853ZM69.5512 48.0767C69.5041 47.956 69.4477 47.8391 69.3827 47.7271C69.3057 47.596 69.2084 47.478 69.0945 47.3776C68.9557 47.2655 68.7996 47.1769 68.6323 47.1155C68.4172 47.0414 68.1908 47.0063 67.9635 47.0117C67.7034 46.9996 67.4443 47.0502 67.2077 47.1592C67.035 47.2482 66.8831 47.3729 66.7618 47.5251C66.6634 47.6534 66.5913 47.8 66.5497 47.9565C66.5204 48.0801 66.504 48.2063 66.5008 48.3333C66.4927 48.535 66.5338 48.7356 66.6204 48.9177C66.7013 49.0697 66.8123 49.2036 66.9467 49.3109C67.0786 49.4213 67.225 49.5132 67.3817 49.5839C67.5285 49.6576 67.6791 49.7233 67.833 49.7805L68.5888 50.0809C68.7535 50.1417 68.915 50.211 69.0727 50.2884C69.1868 50.3397 69.2976 50.3981 69.4044 50.4632C69.5046 50.5283 69.6009 50.5994 69.6926 50.6761C69.8149 50.7774 69.9228 50.895 70.0134 51.0257C70.0918 51.145 70.1558 51.2733 70.2037 51.408C70.2509 51.533 70.2838 51.6631 70.3016 51.7957C70.3208 51.9112 70.3299 52.0281 70.3288 52.1452C70.3284 52.4525 70.2751 52.7573 70.1711 53.0463C70.0585 53.3521 69.8866 53.6324 69.6654 53.871C69.4121 54.1303 69.1087 54.3347 68.7737 54.4717C68.3563 54.6345 67.9109 54.7125 67.4632 54.7011C67.0958 54.7012 66.73 54.6516 66.3757 54.5536C66.0233 54.454 65.6917 54.2912 65.397 54.073C65.4674 53.8422 65.5219 53.6068 65.5601 53.3685C65.5601 53.2529 65.5768 53.1588 65.5896 53.0862C65.5962 53.0491 65.6018 53.0176 65.6036 52.9917H65.7505C65.9196 53.3365 66.1742 53.6318 66.4899 53.8491C66.8352 54.0811 67.2437 54.1994 67.659 54.1877C67.9215 54.1932 68.1824 54.1449 68.4257 54.0457C68.6299 53.9699 68.8153 53.8507 68.9694 53.6962C69.1049 53.5583 69.2088 53.3925 69.2739 53.2101C69.3372 53.035 69.3703 52.8503 69.3718 52.664C69.3771 52.4614 69.3381 52.2601 69.2576 52.0742C69.1821 51.9122 69.077 51.7658 68.9477 51.6428C68.8126 51.5182 68.6606 51.4134 68.4964 51.3315C68.3278 51.2441 68.1429 51.1568 67.9526 51.0803L67.1533 50.7471L66.6748 50.5287C66.5752 50.4806 66.4789 50.4259 66.3866 50.3649C66.3084 50.3118 66.2339 50.2534 66.1637 50.1901C65.9619 50.0246 65.811 49.8049 65.7287 49.5566C65.6379 49.3026 65.5919 49.0346 65.5927 48.7647C65.5855 48.4313 65.6543 48.1007 65.7939 47.7981C65.9245 47.5295 66.1097 47.2913 66.3377 47.0991C66.5777 46.907 66.853 46.7641 67.1479 46.6786C67.4621 46.586 67.7882 46.54 68.1157 46.5421C68.329 46.5406 68.542 46.5588 68.7519 46.5967C68.9359 46.6326 69.1175 46.6801 69.2956 46.7387C69.4489 46.782 69.5981 46.8387 69.7415 46.908C69.8421 46.9556 69.9401 47.0085 70.0352 47.0663L69.9482 47.2466L69.9445 47.2545C69.9127 47.3237 69.8762 47.4029 69.8448 47.4923C69.8122 47.5852 69.7796 47.6834 69.7524 47.7872C69.726 47.8854 69.7096 47.986 69.7035 48.0876L69.5512 48.0767Z" fill="#8C6D3B"/>
<path fill-rule="evenodd" clip-rule="evenodd" d="M35.5847 1.88341C32.4093 2.62069 30.5442 6.35629 31.4197 10.2666C31.7932 11.9299 33.2678 14.6124 34.9299 17.1253C35.0686 17.0813 35.2163 17.0576 35.3694 17.0576C36.1766 17.0576 36.8309 17.7161 36.8309 18.5283C36.8309 18.863 36.7198 19.1717 36.5326 19.4188C37.0685 20.1443 37.5942 20.8148 38.0805 21.3926L38.0729 21.2792L38.0685 21.2178C38.0876 21.2816 38.1065 21.3476 38.1252 21.4158L38.1996 21.3863C38.1768 21.4019 38.1536 21.4177 38.13 21.4335C39.0663 24.8756 39.4862 33.7414 38.161 36.7832C37.3844 38.5692 35.9333 39.9721 34.1268 40.6835C32.3204 41.3948 30.3066 41.3562 28.5285 40.5762C26.7504 39.7962 25.3536 38.3386 24.6454 36.5242C23.9372 34.7098 23.9756 32.6871 24.7522 30.9011C25.4151 29.6492 26.2682 28.5086 27.2806 27.5204C26.8122 28.1342 26.4111 28.7971 26.0844 29.4975C24.4858 33.1676 25.6113 37.2037 28.5965 38.5145C31.5817 39.8252 35.2954 37.9082 36.8886 34.2381C37.9854 31.7193 38.3315 25.3673 38.0851 21.4634C35.177 23.3879 26.758 26.4992 23.4423 26.1381C21.5135 25.9295 19.7462 24.9598 18.5291 23.4423C17.3121 21.9248 16.745 19.9838 16.9527 18.0464C17.1604 16.1089 18.1257 14.3336 19.6364 13.1111C21.1472 11.8886 23.0795 11.319 25.0083 11.5276C26.4005 11.7842 27.7438 12.2598 28.9885 12.9368C28.2652 12.6747 27.516 12.4915 26.7537 12.3906C22.7844 11.9591 19.2826 14.2421 18.9346 17.4974C18.5866 20.7527 21.5174 23.7349 25.4868 24.1664C28.2356 24.4636 34.4699 22.8578 38.0831 21.4325L38.0821 21.4168C37.5557 21.0125 36.9195 20.4254 36.2298 19.7173C35.9884 19.8945 35.6911 19.999 35.3694 19.999C34.5622 19.999 33.9079 19.3405 33.9079 18.5283C33.9079 18.1539 34.0469 17.8122 34.2758 17.5526C31.8306 14.6585 29.3576 11.0519 28.8912 8.96136C28.4651 7.06027 28.8083 5.06702 29.8453 3.42009C30.8824 1.77316 32.5284 0.607468 34.4211 0.179451C36.3139 -0.248565 38.2984 0.0961613 39.9381 1.13778C41.5778 2.1794 42.7384 3.8326 43.1645 5.7337C43.3702 7.13818 43.3555 8.56635 43.1211 9.96628C43.1368 9.19326 43.0712 8.42073 42.9253 7.66157C42.0499 3.75121 38.7602 1.14612 35.5847 1.88341ZM52.26 34.7674C54.2773 32.1788 53.3692 28.1047 50.2373 25.6253C48.0868 23.9156 42.0352 21.9693 38.2284 21.2211L38.2057 21.2608L38.2184 21.2192C38.1495 21.2056 38.0813 21.1925 38.0139 21.1798C38.0843 21.1772 38.1572 21.1754 38.2324 21.1745C39.2766 17.8578 43.9017 10.071 46.7208 8.25201C47.5287 7.73026 48.4311 7.37344 49.3763 7.20195C50.3216 7.03046 51.2912 7.04765 52.2299 7.25253C53.1685 7.45741 54.0577 7.84597 54.8469 8.39603C55.636 8.94608 56.3095 9.64688 56.829 10.4584C57.3485 11.2699 57.7037 12.1762 57.8745 13.1256C58.0452 14.075 58.0281 15.0489 57.8241 15.9916C57.6201 16.9344 57.2332 17.8275 56.6856 18.6201C56.1379 19.4127 55.4402 20.0892 54.6323 20.6109C53.3896 21.2893 52.0482 21.7667 50.6575 22.0254C51.3861 21.775 52.0861 21.4473 52.7455 21.0478C56.1004 18.8851 57.3727 14.8984 55.6327 12.1459C53.8928 9.39342 49.744 8.90191 46.3891 11.0864C44.0601 12.5918 40.2023 17.7962 38.2554 21.1743C41.8138 21.1403 50.4339 22.981 53.0267 25.0354C54.5495 26.2434 55.5322 28.0095 55.7586 29.9452C55.985 31.881 55.4365 33.8277 54.2338 35.3572C53.0311 36.8868 51.2727 37.8738 49.3454 38.1012C47.4181 38.3285 45.4799 37.7776 43.957 36.5697C42.9151 35.6101 42.0306 34.4913 41.3362 33.2547C41.8094 33.8646 42.3453 34.4229 42.9348 34.9203C46.0667 37.4052 50.2427 37.3561 52.26 34.7674ZM40.3386 15.8794C40.3386 16.2038 40.0769 16.4668 39.754 16.4668C39.4311 16.4668 39.1694 16.2038 39.1694 15.8794C39.1694 15.555 39.4311 15.292 39.754 15.292C40.0769 15.292 40.3386 15.555 40.3386 15.8794ZM21.0463 28.2295C21.3692 28.2295 21.631 27.9669 21.631 27.6431C21.631 27.3192 21.3692 27.0566 21.0463 27.0566C20.7234 27.0566 20.4617 27.3192 20.4617 27.6431C20.4617 27.9669 20.7234 28.2295 21.0463 28.2295ZM38.0002 15.5864C38.0002 16.0737 37.6076 16.4688 37.1233 16.4688C36.6389 16.4688 36.2463 16.0737 36.2463 15.5864C36.2463 15.0991 36.6389 14.7041 37.1233 14.7041C37.6076 14.7041 38.0002 15.0991 38.0002 15.5864ZM23.6771 29.4092C24.1614 29.4092 24.554 29.0142 24.554 28.5269C24.554 28.0396 24.1614 27.6445 23.6771 27.6445C23.1928 27.6445 22.8002 28.0396 22.8002 28.5269C22.8002 29.0142 23.1928 29.4092 23.6771 29.4092Z" fill="#8C6D3B"/>
</svg>
