<svg width="130" height="94" viewBox="0 0 130 94" fill="none" xmlns="http://www.w3.org/2000/svg">
<path fill-rule="evenodd" clip-rule="evenodd" d="M128.4 81.5249C128.515 81.714 128.612 81.9138 128.689 82.1216L128.921 82.1122C128.939 81.9392 128.97 81.7678 129.014 81.5995C129.056 81.4283 129.108 81.2601 129.172 81.096C129.178 81.0802 129.183 81.0646 129.189 81.0492C129.237 80.9098 129.281 80.7856 129.34 80.6764C129.359 80.6409 129.379 80.607 129.399 80.5747C129.447 80.4967 129.488 80.4281 129.488 80.3688C129.33 80.2677 129.166 80.1774 128.995 80.0984C128.749 79.9832 128.494 79.8866 128.233 79.8094C127.928 79.7103 127.617 79.6294 127.303 79.567C126.94 79.5024 126.573 79.4712 126.205 79.4738C125.648 79.4702 125.093 79.5487 124.559 79.7069C124.053 79.8489 123.581 80.0932 123.173 80.4247C122.778 80.7479 122.46 81.1556 122.243 81.6181C122.001 82.1338 121.88 82.6984 121.89 83.2683C121.888 83.729 121.967 84.1865 122.122 84.6201C122.267 85.0422 122.524 85.4163 122.866 85.7016C122.988 85.8074 123.115 85.907 123.247 85.9999C123.405 86.1041 123.57 86.1975 123.74 86.2796L124.568 86.6525C124.903 86.8017 125.359 86.9882 125.935 87.2212C126.27 87.3518 126.577 87.501 126.866 87.6501C127.148 87.7876 127.408 87.9668 127.638 88.1815C127.859 88.3915 128.039 88.6414 128.168 88.918C128.305 89.2353 128.372 89.579 128.363 89.9249C128.36 90.243 128.304 90.5583 128.196 90.8573C128.087 91.1679 127.913 91.4511 127.684 91.687C127.418 91.9474 127.101 92.1505 126.754 92.2837C126.338 92.454 125.892 92.5366 125.442 92.5261C124.732 92.5461 124.033 92.3441 123.443 91.948C122.899 91.5867 122.46 91.0883 122.169 90.503H121.908C121.905 90.5472 121.895 90.6009 121.884 90.6643C121.862 90.7883 121.834 90.9489 121.834 91.1463C121.773 91.554 121.68 91.9561 121.555 92.3489C122.059 92.7214 122.626 92.9994 123.229 93.1694C123.835 93.3359 124.461 93.4206 125.089 93.4211C125.852 93.4406 126.611 93.3074 127.321 93.0295C127.896 92.798 128.415 92.4487 128.847 92.004C129.231 91.6016 129.526 91.1217 129.712 90.5962C129.892 90.1033 129.987 89.583 129.991 89.0579C130.003 88.8592 130.003 88.6599 129.991 88.4612C129.951 88.2367 129.895 88.0154 129.823 87.7993C129.734 87.5709 129.622 87.3522 129.488 87.1466C129.333 86.9236 129.149 86.7229 128.94 86.55C128.772 86.4102 128.605 86.2889 128.456 86.1864C128.272 86.0772 128.083 85.9776 127.889 85.888C127.665 85.7762 127.386 85.6643 127.052 85.5338L125.759 85.021C125.508 84.9278 125.256 84.8159 124.987 84.6854C124.72 84.5625 124.47 84.4058 124.243 84.2192C124.018 84.0309 123.829 83.8035 123.685 83.548C123.535 83.2407 123.461 82.9016 123.471 82.5597C123.475 82.3423 123.507 82.1262 123.564 81.9164C123.627 81.6483 123.748 81.3972 123.917 81.1799C124.125 80.9201 124.385 80.7072 124.68 80.5553C125.085 80.3715 125.528 80.2853 125.973 80.3035C126.361 80.2934 126.749 80.3534 127.117 80.4807C127.403 80.5856 127.67 80.7367 127.907 80.9282C128.102 81.0995 128.269 81.301 128.4 81.5249ZM46.9907 88.0602C46.7954 88.517 46.5257 89.1696 46.1816 90.0273C45.7789 91.058 45.4434 92.1137 45.177 93.1879L44.8236 93.1133C44.6754 93.0953 44.5255 93.0953 44.3772 93.1133C44.2226 93.0966 44.0667 93.0966 43.9121 93.1133L43.5215 93.1879C43.5942 93.0251 43.6694 92.8573 43.7468 92.6846L43.7478 92.6824C43.9673 92.1929 44.2043 91.664 44.4516 91.0995L45.5212 88.7314C45.7849 88.1565 46.0486 87.5676 46.3156 86.9712L46.3162 86.9699L46.317 86.968L46.3236 86.9532L46.325 86.9502C46.4316 86.7121 46.5387 86.4728 46.6466 86.2329C47.0279 85.3845 47.3814 84.564 47.7255 83.7622C48.0231 83.069 48.3067 82.3966 48.5764 81.7573L48.7021 81.4594C49.009 80.7322 49.2788 80.0703 49.5113 79.483H49.7438H50.0042H50.2275C50.2955 79.4897 50.3641 79.4897 50.4321 79.483C50.6801 80.1729 50.9901 80.984 51.3622 81.9163C51.5686 82.4209 51.7831 82.9255 52.0059 83.4493L52.0062 83.45C52.1949 83.8938 52.3895 84.3514 52.5899 84.8344C52.9021 85.5867 53.2142 86.2914 53.5264 86.9962L53.5265 86.9964L53.5265 86.9966C53.6515 87.2786 53.7764 87.5606 53.9013 87.8457L55.0732 90.5122C55.4174 91.3046 55.7057 91.9479 55.9289 92.4327C55.9993 92.5855 56.0595 92.7151 56.1089 92.8216L56.1101 92.8242L56.1105 92.825C56.2169 93.0542 56.2731 93.1752 56.2731 93.1879L55.7615 93.1133C55.5479 93.0966 55.3333 93.0966 55.1197 93.1133C54.8937 93.0971 54.6668 93.0971 54.4408 93.1133L53.8734 93.1879C53.5852 92.15 53.231 91.1317 52.8131 90.1392C52.4504 89.3001 52.1435 88.6009 51.883 88.0602H46.9907ZM49.4369 82.2053L47.3814 87.0626H51.5482L49.4369 82.2053ZM14.0444 93.1876V93.1878L14.528 93.0945C14.7602 93.0767 14.9934 93.0767 15.2256 93.0945C15.3898 93.0842 15.5544 93.0842 15.7186 93.0945L16.3231 93.1878C16.2879 93.0842 16.2599 92.9783 16.2394 92.8708V92.6564C16.1092 91.8639 15.979 90.9409 15.8395 89.8595C15.7606 89.2483 15.6848 88.6253 15.6068 87.9852C15.5468 87.4927 15.4856 86.9901 15.4209 86.4752C15.2791 85.3468 15.1542 84.2014 15.03 83.0633L15.0117 82.8951C14.9495 82.3248 14.8872 81.7715 14.827 81.2363C14.7613 80.6516 14.6979 80.0885 14.6397 79.5482H14.435H14.1281H13.9514C13.877 79.7346 13.8026 79.8931 13.7375 80.0237L13.7371 80.0245C13.6721 80.1547 13.6071 80.285 13.5514 80.4152C13.5098 80.5125 13.4579 80.6151 13.4033 80.7228L13.4032 80.7229L13.4032 80.7229C13.3846 80.7596 13.3657 80.7969 13.3468 80.8348C13.324 80.8804 13.2986 80.9304 13.2712 80.9846L13.2711 80.9847L13.2711 80.9847L13.271 80.9849L13.271 80.985L13.2709 80.985C13.2087 81.1076 13.1358 81.2513 13.0585 81.4128L12.5284 82.4104C12.4805 82.5006 12.4319 82.5916 12.3826 82.6838C12.269 82.8965 12.1522 83.115 12.0354 83.3427L11.4773 84.3868C11.3445 84.6723 11.19 84.9534 11.017 85.2684C10.9357 85.4163 10.8503 85.5718 10.7612 85.7387L9.76598 87.6033C9.52749 87.9983 9.29478 88.4482 9.0453 88.9306L9.04527 88.9307L9.04526 88.9307C8.84718 89.3138 8.63853 89.7172 8.40802 90.1298C8.22955 89.8498 8.01872 89.479 7.75931 89.0227L7.59884 88.7407C7.26401 88.1533 6.90129 87.5007 6.51065 86.7922C6.12001 86.0836 5.72007 85.3471 5.32013 84.5826L4.1947 82.4383C3.93398 81.9679 3.71437 81.5433 3.51347 81.1548L3.51346 81.1548L3.51346 81.1548C3.42768 80.9889 3.34531 80.8296 3.26461 80.6762C2.99488 80.1635 2.82748 79.7999 2.73448 79.5761C2.66657 79.5852 2.59776 79.5852 2.52985 79.5761H2.34382C2.23252 79.5879 2.1203 79.5879 2.009 79.5761C1.9346 80.294 1.84156 81.0864 1.72065 82.0187L1.72016 82.0225L1.72016 82.0225L1.72016 82.0225C1.59941 82.9536 1.47866 83.8846 1.33934 84.8157C1.29286 85.1263 1.24741 85.4358 1.20196 85.7454L1.20195 85.7455L1.20195 85.7455L1.20195 85.7455L1.20195 85.7455L1.20195 85.7455L1.20194 85.7455L1.20194 85.7455L1.20194 85.7455L1.20194 85.7455L1.20194 85.7455L1.20194 85.7455C1.11098 86.3651 1.02001 86.9847 0.920783 87.6126C0.841573 88.1138 0.764998 88.5912 0.69246 89.0435L0.692406 89.0438L0.692376 89.044L0.692339 89.0442C0.628641 89.4414 0.568058 89.8191 0.51154 90.1764L0.474061 90.4137C0.36915 91.0784 0.277574 91.6587 0.186002 92.1343C0.155679 92.2918 0.126991 92.4329 0.101633 92.5577C0.0414337 92.8538 0 93.0576 0 93.1691C0.131152 93.1338 0.264873 93.1088 0.399933 93.0945C0.579421 93.0791 0.759887 93.0791 0.939375 93.0945C1.05385 93.0842 1.16903 93.0842 1.2835 93.0945L1.67416 93.1878C1.67416 93.0998 1.67243 93.0032 1.67056 92.8982C1.66628 92.6583 1.66122 92.3746 1.67416 92.0504C1.68785 91.7073 1.70657 91.3339 1.72663 90.9339L1.72663 90.9339L1.72663 90.9339L1.72663 90.9338L1.72663 90.9338L1.72663 90.9338L1.72663 90.9337L1.72664 90.9337L1.72664 90.9337L1.72664 90.9337L1.72664 90.9336C1.73383 90.7903 1.74119 90.6435 1.74855 90.4934C1.77246 90.0062 1.81002 89.4984 1.84954 88.9642L1.86947 88.6941L2.03691 86.8295L2.06853 86.5059L2.06853 86.5059L2.06853 86.5059C2.12095 85.9676 2.1701 85.463 2.23222 84.9649C2.30662 84.3682 2.38102 83.8275 2.45543 83.3333L2.47937 83.3745C2.79825 83.9224 3.14282 84.5145 3.47854 85.142C3.82267 85.7853 4.17609 86.4472 4.53883 87.1278C4.62948 87.2979 4.72014 87.4674 4.81079 87.6369L4.81082 87.637L4.81085 87.637L4.81088 87.6371L4.81091 87.6371L4.81094 87.6372L4.81096 87.6372L4.81099 87.6373L4.81102 87.6374L4.81105 87.6374L4.81108 87.6375C5.08307 88.146 5.35506 88.6546 5.62705 89.1789C5.70724 89.3335 5.78698 89.4867 5.86616 89.6388L5.86617 89.6389L5.86618 89.6389L5.8663 89.6391C6.14524 90.1751 6.41729 90.6978 6.67806 91.2206C6.84682 91.5228 6.99895 91.834 7.1338 92.1529C7.2067 92.3095 7.28544 92.4866 7.37328 92.6841L7.37329 92.6841L7.37332 92.6842C7.44235 92.8394 7.51699 93.0073 7.59884 93.1878C7.64493 93.179 7.69226 93.179 7.73835 93.1878H7.84999H8.129C8.17551 93.0293 8.23133 92.8801 8.28713 92.7403L8.49172 92.2555L8.76146 91.6588C8.85442 91.4352 8.98454 91.1743 9.14253 90.8576L9.1428 90.857C9.78767 89.5456 10.448 88.2528 11.1239 86.9786C11.7998 85.7045 12.4849 84.4272 13.1794 83.1469C13.1958 83.2207 13.2193 83.4389 13.2564 83.7824L13.2565 83.7825L13.2724 83.93C13.3189 84.3589 13.3747 84.8903 13.4305 85.5149C13.4551 85.7898 13.4833 86.0755 13.5126 86.3736C13.55 86.753 13.5894 87.1525 13.6259 87.5753C13.6523 87.8826 13.6804 88.1837 13.7081 88.4812L13.7081 88.4812L13.7081 88.4812L13.7081 88.4812L13.7081 88.4813L13.7081 88.4813L13.7081 88.4814L13.7081 88.4815L13.7081 88.4815C13.7485 88.9149 13.7881 89.3406 13.8212 89.7662C13.8415 90.0272 13.8568 90.2808 13.8717 90.527C13.8979 90.958 13.9226 91.3663 13.97 91.752C14.0444 92.3579 14.0444 92.8334 14.0444 93.1876ZM23.5692 85.5519H21.2532C21.2532 85.4087 21.2812 85.2572 21.3064 85.1203C21.3273 85.0075 21.3462 84.9047 21.3462 84.8246V84.2932V81.6548V81.198V80.6759H22.3414H23.2715H24.3784L25.1875 80.7411L25.8293 80.8157L26.3781 80.9089C26.3222 80.8064 26.3222 80.7132 26.3222 80.6293C26.3157 80.5144 26.3157 80.3992 26.3222 80.2843V79.9207C26.3355 79.8142 26.3542 79.7084 26.3781 79.6038C25.8852 79.697 25.3924 79.697 24.8996 79.697H24.8992H23.411H21.3741C20.7045 79.697 20.0162 79.6597 19.3279 79.5944C19.3349 79.7157 19.3431 79.8394 19.3514 79.9653C19.3762 80.3423 19.4023 80.739 19.4023 81.1514V82.8388V84.545V86.1112C19.4023 86.4899 19.4082 86.8453 19.4136 87.1791V87.1793V87.1795V87.1796V87.1798V87.1799V87.18V87.1801V87.1803V87.1804V87.1804V87.1804V87.1805V87.1805V87.1805V87.1806V87.1806V87.1806V87.1807V87.1807C19.4236 87.7913 19.4324 88.3296 19.4023 88.8056C19.3731 89.268 19.3696 89.6789 19.3664 90.05V90.05C19.3645 90.27 19.3628 90.4759 19.3559 90.6702C19.3444 90.9907 19.326 91.2796 19.3092 91.5433L19.3092 91.5434V91.5434L19.3091 91.5436L19.3091 91.5437L19.3091 91.544V91.544V91.5441L19.3091 91.5441L19.309 91.5453V91.5454V91.5454V91.5454C19.2985 91.7105 19.2886 91.8658 19.2814 92.0127C19.2738 92.1691 19.26 92.3238 19.2463 92.477C19.2265 92.6984 19.207 92.9166 19.207 93.1315L21.4765 93.0569H23.7366H24.9736C25.4281 93.0668 25.8816 93.1041 26.3316 93.1688C26.3049 93.0742 26.2862 92.9775 26.2758 92.8798C26.2648 92.7682 26.2648 92.6558 26.2758 92.5442C26.2649 92.4232 26.2649 92.3015 26.2758 92.1806C26.2861 92.0767 26.3048 91.9738 26.3316 91.8729C25.1689 91.9941 24.183 92.078 23.3646 92.078H21.1974V91.5373V90.7541V89.8778V89.048V87.7614V86.4842H21.9787H22.7786C23.1971 86.4842 23.6715 86.5028 24.2202 86.5308C24.769 86.5587 25.2991 86.6147 25.8014 86.6799V86.3723C25.7918 86.2731 25.7918 86.1732 25.8014 86.074C25.7953 85.9528 25.7953 85.8315 25.8014 85.7103C25.811 85.6063 25.8296 85.5034 25.8572 85.4027C25.0978 85.4938 24.334 85.5437 23.5692 85.5519ZM31.178 92.0692H32.2569H33.8474H34.7775L35.7076 91.9946L36.5074 91.8827C36.4803 91.9778 36.4586 92.0743 36.4423 92.1717C36.4364 92.2898 36.4364 92.408 36.4423 92.526V92.9176C36.4554 93.0126 36.4772 93.1063 36.5074 93.1973H35.5774H34.6473H33.5963H31.1315H30.3409H29.6713H28.9551C28.9551 92.8033 28.9847 92.4166 29.0136 92.0397L29.0136 92.0397C29.0305 91.8192 29.0471 91.602 29.0574 91.3886C29.0694 91.1409 29.0711 90.8914 29.0728 90.6417C29.075 90.3088 29.0773 89.9755 29.1039 89.6452C29.1349 89.2602 29.1246 88.8711 29.1143 88.4806V88.4805C29.1091 88.2848 29.1039 88.0886 29.1039 87.8925V86.0279V84.0234V84.023C29.1039 83.3519 29.1039 82.7274 29.0574 82.1588C29.0342 81.8744 29.0342 81.5994 29.0342 81.3407C29.0342 81.082 29.0342 80.8396 29.0109 80.6205C28.9777 80.3073 28.9919 80.0466 29.0028 79.8484V79.8484V79.8484V79.8483V79.8483V79.8483V79.8483V79.8483V79.8483V79.8483V79.8482V79.8482V79.8482V79.8482V79.8482V79.8482V79.8482C29.0071 79.7691 29.0109 79.7 29.0109 79.6416L29.476 79.7162C29.674 79.7335 29.8732 79.7335 30.0712 79.7162C30.2941 79.7323 30.5179 79.7323 30.7409 79.7162L31.2989 79.6416C31.2989 80.1979 31.278 80.7165 31.2586 81.1973C31.2491 81.4337 31.2399 81.661 31.2338 81.8791C31.2277 82.0974 31.2256 82.3107 31.2235 82.5195C31.2194 82.9439 31.2154 83.3501 31.178 83.7437C31.1407 84.1364 31.1533 84.5165 31.1657 84.8925C31.1719 85.079 31.178 85.2644 31.178 85.4499V87.2585V89.3748V92.0692ZM39.1944 84.0504V86.2133C39.1944 86.4361 39.1954 86.6491 39.1963 86.8527V86.8536V86.8544V86.8552V86.856V86.8568V86.8575V86.8582V86.8588V86.8591C39.1995 87.5385 39.2022 88.1132 39.1665 88.6C39.12 89.2338 39.12 89.8024 39.12 90.3057V90.3061C39.1014 90.8033 39.0828 91.2695 39.0642 91.7046C39.0456 92.1396 39.0177 92.6244 38.9805 93.159L39.4455 93.0844C39.6343 93.0678 39.8241 93.0678 40.0129 93.0844C40.2234 93.0695 40.4348 93.0695 40.6453 93.0844L41.222 93.159C41.1755 92.7954 41.1755 92.4412 41.1755 92.0125V92.0122V90.6511V88.9077V86.5956C41.1755 86.2033 41.1734 85.8111 41.1713 85.42L41.1713 85.4188C41.1672 84.6387 41.1631 83.8629 41.1755 83.0994C41.1941 81.9527 41.2313 80.7873 41.2964 79.6126L40.8127 79.6965C40.599 79.7084 40.3847 79.7084 40.171 79.6965C39.9634 79.7085 39.7554 79.7085 39.5478 79.6965L39.0921 79.6126C39.1212 79.9287 39.1225 80.2195 39.1236 80.4848V80.485V80.485C39.1247 80.7283 39.1256 80.9502 39.1479 81.1509C39.1944 81.5703 39.1944 81.9152 39.1944 82.2787V82.279V83.2113V84.0504ZM64.1113 90.5113V89.2526L64.1578 86.5489H64.9019H65.7018H67.1806C67.7508 86.5761 68.3191 86.6353 68.8827 86.7261C68.8269 86.6235 68.8269 86.5303 68.8269 86.4371C68.8206 86.3253 68.8206 86.2132 68.8269 86.1014C68.8269 86.0495 68.8257 86.001 68.8246 85.9555V85.955V85.9545V85.9541V85.9537V85.9534V85.953C68.8226 85.8687 68.8209 85.7947 68.8269 85.7285C68.831 85.6833 68.8423 85.6363 68.8537 85.589L68.8537 85.5889C68.8682 85.529 68.8827 85.4688 68.8827 85.4115C68.8098 85.4204 68.7342 85.4308 68.6563 85.4416C68.4063 85.4761 68.1317 85.514 67.841 85.514H66.6505H64.1578V84.8615V84.3301V81.6823V81.2161V80.694H64.8089H65.4134C66.2133 80.694 66.9295 80.7314 67.6364 80.7873C68.3432 80.8432 68.8641 80.9085 69.2733 80.9737C69.2175 80.8619 69.2175 80.7687 69.2175 80.6661V80.6661C69.2114 80.545 69.2114 80.4236 69.2175 80.3025V79.9295L69.2733 79.6219C69.0853 79.6507 68.896 79.6694 68.706 79.6779H67.9805H66.883H63.5346H62.8557L62.1116 79.6126C62.1473 79.8683 62.1494 80.1381 62.1518 80.4326C62.1537 80.675 62.1557 80.9342 62.1767 81.2161C62.2232 81.8408 62.2232 82.4281 62.2232 83.0807V84.9454V86.5489C62.2232 87.8262 62.1953 89.0009 62.1581 90.073C62.1209 91.1452 62.0651 92.1801 62 93.187L62.465 93.1124C62.6693 93.094 62.8747 93.094 63.0789 93.1124C63.2987 93.0947 63.5195 93.0947 63.7393 93.1124L64.2322 93.187C64.1984 93.0368 64.1972 92.8916 64.196 92.7489V92.7488C64.195 92.6169 64.1939 92.487 64.1671 92.3572C64.1113 92.0869 64.1113 91.7979 64.1113 91.4996V91.4995V90.5113ZM72.1029 86.2133V84.0504V83.2113V82.279V81.1509C72.1029 80.7313 72.1029 80.2186 72.0471 79.6126C72.1972 79.6495 72.3494 79.6775 72.5028 79.6965C72.7073 79.7085 72.9122 79.7085 73.1167 79.6965C73.3304 79.7088 73.5447 79.7088 73.7585 79.6965L74.2514 79.6126C74.1863 80.7873 74.1398 81.9527 74.1212 83.0994C74.1088 83.8626 74.1129 84.6381 74.1171 85.4178V85.4188C74.1191 85.8103 74.1212 86.2029 74.1212 86.5956V88.9077V90.6511V90.6513C74.1212 91.1546 74.1212 91.5834 74.177 92.0122C74.2062 92.2364 74.2048 92.4402 74.2036 92.6355C74.2024 92.814 74.2013 92.9854 74.2235 93.159L73.6469 93.0844C73.4363 93.0702 73.225 93.0702 73.0144 93.0844C72.8256 93.0678 72.6358 93.0678 72.447 93.0844L71.9727 93.159C72.0192 92.6276 72.0471 92.1428 72.0657 91.7046C72.0719 91.5571 72.074 91.4032 72.0761 91.2462C72.0802 90.9369 72.0844 90.6153 72.1215 90.3061C72.158 90.0012 72.1467 89.6365 72.1346 89.2432V89.2431V89.243V89.2429V89.2428V89.2427C72.1281 89.0349 72.1215 88.8191 72.1215 88.6C72.1215 88.3165 72.1178 88.0033 72.1136 87.6569V87.6566V87.6563V87.6559V87.6556V87.6552C72.1086 87.2272 72.1029 86.7487 72.1029 86.2133ZM80.8713 82.9699V85.5431C80.8713 85.9892 80.8693 86.4364 80.8672 86.8818C80.8631 87.7675 80.859 88.6462 80.8713 89.496C80.8341 90.8386 80.7783 92.0506 80.7039 93.1321C80.8377 93.0942 80.9747 93.0692 81.1132 93.0575C81.3144 93.0421 81.5165 93.0421 81.7178 93.0575H82.1456C82.3595 93.0761 82.6292 93.1041 82.964 93.16C82.9575 93.0546 82.9507 92.9494 82.9439 92.8443L82.9434 92.8353L82.9428 92.8267L82.9428 92.826C82.9021 92.1937 82.8617 91.5661 82.8617 90.9318V88.7409V86.6619V84.7972V82.7834V80.751C84.0337 80.7697 84.9452 80.7976 85.5962 80.8536C86.2473 80.9095 86.7216 80.9561 87.0192 81.0121C86.9924 80.908 86.9737 80.802 86.9634 80.6951V80.3222V79.9399C86.9704 79.8386 86.9891 79.7385 87.0192 79.6416L85.9497 79.7068H84.6568H79.0298C78.8785 79.7068 78.7232 79.7089 78.5672 79.7109C78.253 79.7151 77.936 79.7193 77.6439 79.7068C77.449 79.6985 77.2671 79.6846 77.0989 79.6718C76.8899 79.6559 76.7021 79.6416 76.5371 79.6416L76.5929 79.9399V80.3222V80.6951L76.5371 81.0121C77.1027 80.9108 77.6744 80.8485 78.2485 80.8256C79.0111 80.751 79.8389 80.751 80.8713 80.751V82.9699ZM89.3261 84.2932V86.3909V88.0225C89.3261 88.5073 89.3261 88.9548 89.3819 89.3743C89.4111 89.5934 89.4098 89.8073 89.4085 90.0176V90.0176V90.0177V90.0178C89.4073 90.2101 89.4062 90.3993 89.4284 90.5863C89.4496 90.7645 89.4515 90.9447 89.4534 91.1277C89.4557 91.3468 89.4581 91.5698 89.4935 91.7983C89.5379 92.084 89.5477 92.387 89.5583 92.7132V92.7133C89.5632 92.8661 89.5683 93.0239 89.5772 93.1875L89.2145 93.1129C89.0599 93.0962 88.904 93.0962 88.7495 93.1129C88.6074 93.0948 88.4636 93.0948 88.3216 93.1129L87.9961 93.1875C87.9961 93.0473 88.0105 92.8695 88.0281 92.6524L88.0281 92.6521L88.0282 92.6516L88.0282 92.6506C88.0422 92.4785 88.0581 92.2816 88.0705 92.0594C88.0804 91.8794 88.0833 91.6934 88.0862 91.5011V91.5009V91.5008V91.5007C88.0915 91.1552 88.0971 90.7891 88.1449 90.3999C88.1981 89.9663 88.2038 89.5231 88.2095 89.0738V89.073C88.2117 88.8947 88.214 88.7153 88.2193 88.5353C88.2319 88.1049 88.2274 87.7003 88.2232 87.3243V87.3239V87.323V87.3222V87.3214C88.2212 87.1447 88.2193 86.9742 88.2193 86.8105V85.8129V84.3399V82.8762V81.9439V79.5944H88.3774H88.7122H88.9354L89.5865 80.3589C89.6597 80.4549 89.7398 80.5475 89.8205 80.6408L89.8206 80.6409L89.8207 80.641L89.8208 80.6412C89.8732 80.7018 89.9259 80.7627 89.9771 80.8251C90.059 80.9247 90.1482 81.0206 90.2448 81.1245C90.3018 81.1858 90.3614 81.2499 90.4236 81.3192L91.0003 81.9345L91.7723 82.7456C92.4233 83.4449 92.9814 84.0415 93.4557 84.5356L94.7206 85.8688L95.7065 86.913L96.5808 87.8453L97.5109 88.7776L98.6084 89.8964V85.9714V83.594C98.6084 82.8948 98.6084 82.2235 98.534 81.5989C98.4923 81.2493 98.4711 80.891 98.4491 80.519L98.449 80.5187L98.449 80.5183C98.4317 80.2258 98.4138 79.9248 98.3852 79.6131L98.7293 79.697C98.8684 79.7127 99.0088 79.7127 99.1479 79.697C99.2963 79.7116 99.4458 79.7116 99.5943 79.697L99.9849 79.6131C99.8175 81.0395 99.7245 82.41 99.6966 83.8551C99.6781 84.8149 99.6842 85.7337 99.6903 86.6659C99.6935 87.1372 99.6966 87.6119 99.6966 88.0971V89.365V90.7821V92.1619V92.1623C99.6966 92.6097 99.6966 93.0104 99.7431 93.3646H99.5478H99.2222H99.0641L98.5805 92.8052C98.4018 92.5872 98.1972 92.3561 97.9666 92.0958L97.8271 91.9382L96.897 90.9126L95.9019 89.8498L94.9718 88.8522L94.1812 88.0691C94.0047 87.9201 93.8468 87.7619 93.6796 87.5943L93.6794 87.5941L93.6794 87.5941L93.6789 87.5936C93.5115 87.4258 93.3534 87.2673 93.186 87.0901L89.3726 83.1186L89.3261 84.2932ZM106.792 85.5519H104.476C104.476 85.4088 104.465 85.2574 104.455 85.1205V85.1204V85.1203C104.447 85.0075 104.439 84.9047 104.439 84.8246V84.2932V81.6548V81.198V80.6759H105.443H106.374H107.48L108.29 80.7411L108.922 80.8157L109.48 80.9089C109.454 80.8173 109.436 80.7238 109.424 80.6293C109.413 80.5146 109.413 80.399 109.424 80.2843C109.415 80.1633 109.415 80.0417 109.424 79.9207C109.433 79.8135 109.452 79.7075 109.48 79.6038C108.987 79.697 108.485 79.697 107.992 79.697H107.992H106.513H104.485C103.816 79.697 103.137 79.6597 102.449 79.5944C102.514 80.0792 102.514 80.6013 102.514 81.1514V82.8388V84.545V86.1112C102.514 86.4904 102.521 86.8462 102.527 87.1804V87.1807C102.539 87.7913 102.55 88.3296 102.514 88.8056C102.477 89.2896 102.472 89.7172 102.468 90.1017C102.466 90.3023 102.464 90.4912 102.458 90.6702C102.452 90.8311 102.451 90.984 102.45 91.1298C102.447 91.457 102.444 91.7483 102.393 92.0127C102.318 92.395 102.318 92.7679 102.318 93.1315L104.578 93.0569H106.848H108.206C108.66 93.0668 109.114 93.1041 109.564 93.1688C109.499 93.0662 109.499 92.973 109.499 92.8798C109.492 92.768 109.492 92.656 109.499 92.5442C109.493 92.423 109.493 92.3017 109.499 92.1806C109.506 92.1426 109.516 92.1059 109.527 92.0691L109.527 92.069L109.527 92.0689C109.545 92.0063 109.564 91.9433 109.564 91.8729C108.448 91.9941 107.406 92.078 106.588 92.078H104.42V91.5373V90.7541V89.8778V89.048V87.7614V86.4842H105.202H106.002C106.42 86.4842 106.904 86.5028 107.453 86.5308C108.001 86.5587 108.522 86.6147 109.034 86.6799V86.3723C109.024 86.2731 109.024 86.1732 109.034 86.074C109.023 85.953 109.023 85.8313 109.034 85.7103C109.043 85.6063 109.062 85.5034 109.089 85.4027C108.327 85.4938 107.56 85.5437 106.792 85.5519ZM118.969 82.1206C118.889 81.9145 118.792 81.715 118.681 81.5239C118.549 81.3 118.383 81.0985 118.188 80.9272C117.951 80.7357 117.683 80.5846 117.397 80.4797C117.029 80.3532 116.642 80.2932 116.253 80.3026C115.808 80.2819 115.365 80.3682 114.961 80.5543C114.665 80.7062 114.405 80.9191 114.198 81.1789C114.029 81.3979 113.906 81.6483 113.835 81.9154C113.785 82.1263 113.757 82.3419 113.751 82.5587C113.738 82.903 113.808 83.2454 113.956 83.5563C114.094 83.8159 114.284 84.0443 114.514 84.2275C114.74 84.4161 114.99 84.573 115.258 84.6937C115.509 84.8195 115.767 84.9316 116.03 85.0293L117.323 85.5421C117.605 85.646 117.881 85.7642 118.151 85.8964C118.346 85.984 118.535 86.0836 118.718 86.1947C118.889 86.3059 119.054 86.4273 119.211 86.5583C119.42 86.7312 119.605 86.932 119.76 87.155C119.894 87.3587 120.003 87.5778 120.085 87.8076C120.166 88.0211 120.222 88.2432 120.253 88.4696C120.286 88.6667 120.301 88.8663 120.299 89.0662C120.299 89.5907 120.207 90.1112 120.03 90.6045C119.837 91.1265 119.543 91.6051 119.164 92.0123C118.731 92.455 118.212 92.804 117.639 93.0378C116.925 93.3158 116.163 93.4489 115.398 93.4294C114.769 93.4297 114.143 93.345 113.537 93.1777C112.935 93.0077 112.367 92.7297 111.863 92.3573C111.984 91.9632 112.077 91.5614 112.142 91.1546C112.142 90.9573 112.171 90.7967 112.193 90.6728L112.193 90.6727L112.193 90.6725C112.204 90.6092 112.214 90.5555 112.217 90.5113H112.468C112.757 91.1 113.193 91.6041 113.733 91.975C114.323 92.3711 115.022 92.5731 115.732 92.5531C116.181 92.5625 116.628 92.48 117.044 92.3107C117.393 92.1812 117.71 91.9777 117.974 91.714C118.206 91.4786 118.383 91.1954 118.495 90.8842C118.603 90.5852 118.66 90.2699 118.662 89.9519C118.671 89.606 118.605 89.2623 118.467 88.945C118.338 88.6684 118.158 88.4185 117.937 88.2085C117.706 87.9958 117.446 87.8169 117.165 87.6771C116.876 87.5279 116.56 87.3788 116.235 87.2482L114.867 86.6795L114.049 86.3066C113.879 86.2245 113.714 86.1311 113.556 86.0269C113.422 85.9363 113.295 85.8366 113.175 85.7286C112.829 85.446 112.571 85.0709 112.431 84.6471C112.275 84.2134 112.197 83.756 112.198 83.2952C112.186 82.726 112.303 82.1616 112.542 81.6451C112.766 81.1864 113.082 80.7798 113.472 80.4517C113.883 80.1237 114.354 79.8799 114.858 79.7339C115.396 79.5757 115.953 79.4972 116.514 79.5008C116.879 79.4982 117.243 79.5294 117.602 79.594C117.917 79.6554 118.227 79.7363 118.532 79.8364C118.794 79.9104 119.049 80.0071 119.295 80.1254C119.467 80.2068 119.634 80.297 119.797 80.3958L119.648 80.7034L119.642 80.7173L119.642 80.7173C119.587 80.8353 119.525 80.9705 119.471 81.123C119.416 81.2815 119.36 81.4493 119.313 81.6264C119.268 81.794 119.24 81.9658 119.23 82.1392L118.969 82.1206Z" fill="#8C6D3B"/>
<path fill-rule="evenodd" clip-rule="evenodd" d="M60.8663 3.26786C55.4346 4.52648 52.2444 10.9035 53.7418 17.5788C54.3807 20.4181 56.903 24.9972 59.746 29.2868C59.9839 29.2114 60.2372 29.1707 60.5 29.1707C61.8807 29.1707 63 30.2945 63 31.6808C63 32.2531 62.8093 32.7806 62.4881 33.2029C63.4054 34.4422 64.3053 35.5876 65.1377 36.5744C65.131 36.4725 65.1241 36.3716 65.1169 36.2718C65.1496 36.3807 65.1819 36.4935 65.2139 36.6101L65.3391 36.5603C65.3007 36.5866 65.2617 36.613 65.222 36.6396C66.8235 42.5152 67.542 57.6499 65.2751 62.8425C63.9467 65.8913 61.4645 68.2862 58.3746 69.5005C55.2846 70.7147 51.84 70.6489 48.7985 69.3174C45.757 67.9859 43.3677 65.4978 42.1563 62.4004C40.9449 59.3031 41.0106 55.8503 42.339 52.8016C43.4729 50.6645 44.9321 48.7175 46.6639 47.0306C45.8626 48.0785 45.1766 49.21 44.6177 50.4055C41.8833 56.6706 43.8085 63.5604 48.9147 65.7979C54.0209 68.0354 60.3735 64.763 63.0986 58.4979C64.9748 54.1981 65.5667 43.3548 65.1452 36.6907C60.1725 39.9755 45.7687 45.2878 40.0964 44.6714C36.7971 44.3153 33.7741 42.6601 31.6923 40.0698C29.6105 37.4796 28.6405 34.1664 28.9958 30.8593C29.351 27.5521 31.0023 24.5219 33.5864 22.4352C36.1705 20.3484 39.4758 19.3762 42.7751 19.7322C45.1565 20.1703 47.4542 20.982 49.5834 22.1376C48.3462 21.6902 47.0646 21.3776 45.7607 21.2052C38.971 20.4687 32.9812 24.3658 32.3859 29.9223C31.7907 35.4789 36.8039 40.5693 43.5936 41.3058C48.2959 41.8131 58.9617 39.0715 65.1418 36.6385L65.1403 36.6147C64.2394 35.9244 63.1503 34.9215 61.9696 33.7117C61.5571 34.0131 61.0492 34.191 60.5 34.191C59.1193 34.191 58 33.0671 58 31.6808C58 31.0426 58.2372 30.4601 58.6279 30.0172C54.4452 25.0765 50.2146 18.9195 49.4169 15.3505C48.688 12.1052 49.275 8.70256 51.0489 5.89111C52.8229 3.07967 55.6383 1.08974 58.8759 0.359075C62.1135 -0.371587 65.5081 0.216885 68.3129 1.99502C71.1177 3.77316 73.1029 6.59531 73.8318 9.84064C74.1835 12.2382 74.1584 14.6762 73.7574 17.066C73.7844 15.7464 73.6722 14.4276 73.4226 13.1317C71.9251 6.45637 66.2981 2.00925 60.8663 3.26786ZM89.3919 59.4031C92.8425 54.984 91.2892 48.0289 85.9319 43.7963C82.2533 40.8775 71.9006 37.5546 65.3891 36.2776L65.3496 36.3464L65.3717 36.2742C65.2544 36.2513 65.1382 36.2289 65.0234 36.2073C65.1434 36.2029 65.2675 36.1999 65.3954 36.1984C67.1821 30.536 75.093 17.244 79.9149 14.1388C81.2969 13.2481 82.8404 12.639 84.4573 12.3463C86.0742 12.0535 87.7328 12.0828 89.3383 12.4326C90.9439 12.7824 92.465 13.4457 93.8148 14.3847C95.1646 15.3237 96.3167 16.52 97.2053 17.9053C98.0939 19.2907 98.7016 20.8378 98.9936 22.4586C99.2857 24.0793 99.2564 25.7418 98.9075 27.3512C98.5586 28.9606 97.8968 30.4853 96.96 31.8384C96.0232 33.1914 94.8298 34.3462 93.4477 35.2369C91.3221 36.3951 89.0276 37.21 86.6488 37.6516C87.8951 37.2242 89.0924 36.6648 90.2203 35.9827C95.959 32.2908 98.1354 25.485 95.1591 20.7862C92.1828 16.0873 85.0862 15.2483 79.3475 18.9775C75.3638 21.5472 68.7654 30.4311 65.435 36.198C71.5209 36.1393 86.2679 39.2818 90.7033 42.7894C93.3082 44.8516 94.9891 47.8665 95.3764 51.171C95.7636 54.4755 94.8253 57.7989 92.7681 60.4099C90.7108 63.021 87.703 64.706 84.4064 65.0942C81.1097 65.4823 77.7942 64.5419 75.1893 62.4797C73.4072 60.8416 71.8942 58.9317 70.7063 56.8206C71.5158 57.8619 72.4324 58.815 73.4408 59.6641C78.7981 63.9061 85.9412 63.8222 89.3919 59.4031ZM69 27.1608C69 27.7144 68.5523 28.1632 68 28.1632C67.4477 28.1632 67 27.7144 67 27.1608C67 26.6072 67.4477 26.1585 68 26.1585C68.5523 26.1585 69 26.6072 69 27.1608ZM36 48.2445C36.5523 48.2445 37 47.7957 37 47.2421C37 46.6885 36.5523 46.2398 36 46.2398C35.4477 46.2398 35 46.6885 35 47.2421C35 47.7957 35.4477 48.2445 36 48.2445ZM65 26.6605C65 27.4923 64.3284 28.1666 63.5 28.1666C62.6716 28.1666 62 27.4923 62 26.6605C62 25.8287 62.6716 25.1544 63.5 25.1544C64.3284 25.1544 65 25.8287 65 26.6605ZM40.5 50.256C41.3284 50.256 42 49.5817 42 48.7499C42 47.9181 41.3284 47.2438 40.5 47.2438C39.6716 47.2438 39 47.9181 39 48.7499C39 49.5817 39.6716 50.256 40.5 50.256Z" fill="#8C6D3B"/>
</svg>
