<svg width="126" height="40" viewBox="0 0 126 40" fill="none" xmlns="http://www.w3.org/2000/svg">
<path d="M16.46 14.4014V11.585H13.6025C13.0238 12.4873 12.3197 13.2119 11.4902 13.7588C11.4811 13.7633 11.4697 13.7656 11.4561 13.7656C11.3831 13.7656 11.3467 13.7292 11.3467 13.6562C11.3467 13.6426 11.3512 13.6289 11.3604 13.6152C12.2171 12.7038 12.8711 11.6396 13.3223 10.4229C13.5 9.93066 13.6276 9.43164 13.7051 8.92578C14.571 9.13086 15.0039 9.30859 15.0039 9.45898C15.0039 9.59115 14.8353 9.68457 14.498 9.73926C14.3294 10.2087 14.1016 10.7077 13.8145 11.2363H16.46V10.4912C16.46 9.50228 16.4372 8.82552 16.3916 8.46094C17.0205 8.53385 17.4307 8.60221 17.6221 8.66602C17.7588 8.71615 17.8271 8.78451 17.8271 8.87109C17.8271 8.99414 17.6654 9.11491 17.3418 9.2334V11.2363H20.0557C20.4613 10.7624 20.6982 10.5254 20.7666 10.5254C20.8441 10.5254 21.1016 10.7031 21.5391 11.0586C21.7624 11.2363 21.874 11.3662 21.874 11.4482C21.874 11.5394 21.8079 11.585 21.6758 11.585H17.3418V14.4014H21.2041C21.6598 13.8773 21.9264 13.6152 22.0039 13.6152C22.0814 13.6152 22.3525 13.8066 22.8174 14.1895C23.0589 14.39 23.1797 14.5358 23.1797 14.627C23.1797 14.709 23.1182 14.75 22.9951 14.75H18.627V19.2412C18.627 19.5192 18.7363 19.6969 18.9551 19.7744C19.1784 19.8564 19.625 19.8975 20.2949 19.8975C21.1471 19.8975 21.6598 19.8223 21.833 19.6719C22.0244 19.4941 22.266 18.8766 22.5576 17.8193C22.5713 17.7874 22.5986 17.7715 22.6396 17.7715C22.6989 17.7715 22.7285 17.7965 22.7285 17.8467C22.7103 18.4893 22.7012 18.8789 22.7012 19.0156C22.7012 19.1022 22.7035 19.1774 22.708 19.2412C22.7171 19.4326 22.8037 19.5579 22.9678 19.6172C23.109 19.6673 23.1797 19.779 23.1797 19.9521C23.1797 20.262 22.9427 20.4626 22.4688 20.5537C22.0586 20.6676 21.3385 20.7246 20.3086 20.7246C19.2148 20.7246 18.4971 20.6152 18.1553 20.3965C17.8636 20.2096 17.7178 19.877 17.7178 19.3984L17.7451 17.7441V14.75H15.6328C15.5781 16.2129 15.307 17.3887 14.8193 18.2773C14.0902 19.5898 12.7344 20.4945 10.752 20.9912C10.6745 21.0049 10.6357 20.957 10.6357 20.8477C10.6357 20.8203 10.6471 20.8021 10.6699 20.793C11.6452 20.3919 12.4176 19.9271 12.9873 19.3984C13.4932 18.9382 13.8851 18.3867 14.1631 17.7441C14.4821 17.015 14.6644 16.0169 14.71 14.75H11.9551C11.5905 14.75 11.2578 14.7773 10.957 14.832L10.8203 14.3057C11.235 14.3695 11.6064 14.4014 11.9346 14.4014H16.46ZM30.0184 10.0879H32.7459C32.9965 9.63216 33.188 9.23568 33.3201 8.89844C33.4158 8.62044 33.4796 8.38574 33.5115 8.19434C34.0857 8.41764 34.4367 8.56348 34.5643 8.63184C34.6919 8.70475 34.7557 8.78223 34.7557 8.86426C34.7557 8.99642 34.5597 9.06706 34.1678 9.07617C33.8807 9.40885 33.5411 9.74609 33.1492 10.0879H35.5965C35.9884 9.63672 36.2231 9.41113 36.3006 9.41113C36.3781 9.41113 36.6242 9.58431 37.0389 9.93066C37.2348 10.0856 37.3328 10.2087 37.3328 10.2998C37.3328 10.391 37.269 10.4365 37.1414 10.4365H31.9187V11.7285H34.6736C35.0519 11.2956 35.282 11.0791 35.3641 11.0791C35.4415 11.0791 35.674 11.2432 36.0613 11.5713C36.2482 11.7308 36.3416 11.8584 36.3416 11.9541C36.3416 12.0361 36.2801 12.0771 36.157 12.0771H31.9187V13.4648H36.1297C36.5079 13.0182 36.7381 12.7949 36.8201 12.7949C36.893 12.7949 37.1437 12.9635 37.5721 13.3008C37.7771 13.4557 37.8797 13.5856 37.8797 13.6904C37.8797 13.7725 37.8204 13.8135 37.702 13.8135H29.6834C29.5148 14.2965 29.3826 14.6611 29.2869 14.9072C29.3051 14.9163 29.3325 14.93 29.3689 14.9482C29.4555 14.9938 29.5262 15.0348 29.5809 15.0713H34.8172C35.0861 14.7751 35.2524 14.627 35.3162 14.627C35.3891 14.627 35.576 14.7523 35.8768 15.0029C36.0271 15.1396 36.1023 15.2422 36.1023 15.3105C36.1023 15.4108 35.9861 15.5361 35.7537 15.6865V17.1631L35.8221 20.6494C35.8221 20.9092 35.6398 21.0391 35.2752 21.0391C35.0337 21.0391 34.9129 20.9297 34.9129 20.7109V20.2939H29.4852V20.6973C29.4852 20.9434 29.3074 21.0664 28.952 21.0664C28.7104 21.0664 28.5896 20.9639 28.5896 20.7588L28.658 17.5938L28.6717 16.1104C27.8149 17.5915 26.7234 18.7718 25.3973 19.6514C25.3882 19.6559 25.379 19.6582 25.3699 19.6582C25.2833 19.6582 25.24 19.6126 25.24 19.5215C25.24 19.5078 25.2469 19.4941 25.2605 19.4805C26.0991 18.7604 26.8624 17.8193 27.5506 16.6572C28.143 15.6592 28.5509 14.7113 28.7742 13.8135H26.6961C26.4318 13.8135 26.0877 13.8408 25.6639 13.8955L25.534 13.3691C25.894 13.4329 26.2814 13.4648 26.6961 13.4648H31.0779V12.0771H28.0701C27.7648 12.0771 27.448 12.0999 27.1199 12.1455L26.9764 11.6465C27.4093 11.7012 27.7693 11.7285 28.0564 11.7285H31.0779V10.4365H27.1199C26.7872 10.4365 26.466 10.4593 26.1561 10.5049L26.0125 9.97168C26.3953 10.0492 26.7599 10.0879 27.1062 10.0879H29.6697C29.574 10.0332 29.4943 9.91699 29.4305 9.73926C29.2755 9.24707 29.0203 8.82324 28.6648 8.46777C28.6512 8.4541 28.6443 8.43815 28.6443 8.41992C28.6443 8.35612 28.674 8.32422 28.7332 8.32422C28.7469 8.32422 28.756 8.3265 28.7605 8.33105C29.271 8.486 29.6743 8.69108 29.9705 8.94629C30.2257 9.17415 30.3533 9.39974 30.3533 9.62305C30.3533 9.82812 30.2417 9.98307 30.0184 10.0879ZM34.9129 18.5713H29.4852V19.9453H34.9129V18.5713ZM34.9129 18.2227V16.9785H29.4852V18.2227H34.9129ZM34.9129 16.6299V15.4199H29.4852V16.6299H34.9129ZM43.775 9.54102C43.9254 9.54102 44.0006 9.60026 44.0006 9.71875C43.955 10.9447 43.9322 11.945 43.9322 12.7197V16.9717C43.9322 17.6735 43.9436 18.1315 43.9664 18.3457C43.9892 18.528 44.0348 18.6761 44.1031 18.79C44.2034 18.9723 44.6272 19.0908 45.3746 19.1455C45.4566 19.1546 45.4977 19.223 45.4977 19.3506C45.4977 19.4827 45.4658 19.5488 45.402 19.5488C44.5725 19.5124 43.914 19.4941 43.4264 19.4941C43.0025 19.4941 42.3303 19.5124 41.4098 19.5488C41.346 19.5488 41.3141 19.4827 41.3141 19.3506C41.3141 19.223 41.3596 19.1546 41.4508 19.1455C41.8974 19.1136 42.2073 19.068 42.3805 19.0088C42.5126 18.9632 42.6083 18.8903 42.6676 18.79C42.7815 18.6123 42.8385 18.0062 42.8385 16.9717V12.0566C42.8385 11.5143 42.7883 11.1748 42.6881 11.0381C42.5969 10.915 42.4648 10.8535 42.2916 10.8535C42.1686 10.8535 41.9999 10.8877 41.7857 10.9561L41.1705 11.1475C41.052 11.1475 40.9928 11.054 40.9928 10.8672C40.9928 10.8125 41.0452 10.7669 41.15 10.7305C42.0615 10.4023 42.9365 10.0059 43.775 9.54102ZM51.5023 9.60938C52.4184 9.60938 53.1566 10.0856 53.7172 11.0381C54.2549 11.945 54.5238 13.1572 54.5238 14.6748C54.5238 16.4157 54.1934 17.7464 53.5326 18.667C52.9949 19.4144 52.3181 19.7881 51.5023 19.7881C50.4997 19.7881 49.7273 19.3096 49.185 18.3525C48.6928 17.4775 48.4467 16.2812 48.4467 14.7637C48.4467 12.9818 48.7839 11.6305 49.4584 10.71C50.0007 9.97624 50.682 9.60938 51.5023 9.60938ZM51.5023 10.04C50.2947 10.04 49.6908 11.5986 49.6908 14.7158C49.6908 16.4749 49.8731 17.7236 50.2377 18.4619C50.5294 19.0544 50.9509 19.3506 51.5023 19.3506C52.1176 19.3506 52.5687 18.9609 52.8559 18.1816C53.1384 17.4206 53.2797 16.2653 53.2797 14.7158C53.2797 11.5986 52.6872 10.04 51.5023 10.04ZM61.5812 10.4775C61.2531 10.9378 60.843 11.4049 60.3508 11.8789C60.9296 12.0931 61.3898 12.3802 61.7316 12.7402C62.0142 13.041 62.1555 13.3372 62.1555 13.6289C62.1555 13.7884 62.1053 13.9274 62.0051 14.0459C61.9185 14.1507 61.8182 14.2031 61.7043 14.2031C61.5038 14.2031 61.3602 14.0641 61.2736 13.7861C61.0731 13.0843 60.7085 12.5033 60.1799 12.043C59.3732 12.7767 58.398 13.4329 57.2541 14.0117C57.245 14.0163 57.2359 14.0186 57.2268 14.0186C57.1538 14.0186 57.1174 13.9707 57.1174 13.875C57.1174 13.8522 57.1242 13.8385 57.1379 13.834C58.7284 12.8086 60.0363 11.4596 61.0617 9.78711C61.3944 9.25846 61.6428 8.74577 61.8068 8.24902C62.6271 8.46777 63.0373 8.64551 63.0373 8.78223C63.0373 8.90072 62.8505 9.00326 62.4768 9.08984C62.2307 9.52279 62.0165 9.86914 61.8342 10.1289H65.2521C65.5484 9.79167 65.7307 9.62305 65.799 9.62305C65.8811 9.62305 66.0952 9.78711 66.4416 10.1152C66.6193 10.2793 66.7082 10.4001 66.7082 10.4775C66.7082 10.5869 66.5305 10.694 66.175 10.7988C64.9126 12.9225 63.3062 14.6042 61.3557 15.8438L61.4035 15.8711H66.5441C66.8404 15.5521 67.0158 15.3926 67.0705 15.3926C67.1389 15.3926 67.3348 15.5293 67.6584 15.8027C67.8088 15.9303 67.884 16.0374 67.884 16.124C67.884 16.2197 67.7587 16.3405 67.508 16.4863V17.6895L67.5627 20.6631C67.5627 20.9137 67.3804 21.0391 67.0158 21.0391C66.8609 21.0391 66.7583 21.014 66.7082 20.9639C66.6626 20.9183 66.6398 20.8363 66.6398 20.7178V20.1572H61.2463V20.6904C61.2463 20.9411 61.0686 21.0664 60.7131 21.0664C60.4533 21.0664 60.3234 20.9548 60.3234 20.7314L60.3918 17.751C60.3918 17.0309 60.3872 16.5866 60.3781 16.418C59.3664 16.9648 58.2066 17.4593 56.8986 17.9014H56.885C56.8166 17.9014 56.7824 17.8535 56.7824 17.7578C56.7824 17.7305 56.7938 17.7122 56.8166 17.7031C60.7176 16.026 63.5477 13.6175 65.3068 10.4775H61.5812ZM66.6398 19.8086V16.2197H61.2463V19.8086H66.6398ZM78.8857 11.0381H76.8691C76.6777 11.0381 76.3792 11.0609 75.9736 11.1064L75.8369 10.5938C76.2015 10.6576 76.541 10.6895 76.8555 10.6895H79.9111C80.1982 10.1882 80.4261 9.71191 80.5947 9.26074C80.7542 8.88704 80.8477 8.57943 80.875 8.33789C81.4173 8.55208 81.7568 8.7002 81.8936 8.78223C82.0166 8.85059 82.0781 8.92122 82.0781 8.99414C82.0781 9.12174 81.8958 9.19694 81.5312 9.21973C81.1211 9.80306 80.7064 10.293 80.2871 10.6895H82.3447C82.6637 10.2975 82.8643 10.1016 82.9463 10.1016C83.0283 10.1016 83.2607 10.2565 83.6436 10.5664C83.8122 10.6986 83.8965 10.8102 83.8965 10.9014C83.8965 10.9925 83.8372 11.0381 83.7188 11.0381H79.6855V12.583H81.5312C81.8822 12.1729 82.0895 11.9678 82.1533 11.9678C82.208 11.9678 82.4313 12.1318 82.8232 12.46C83.001 12.6149 83.0898 12.7266 83.0898 12.7949C83.0898 12.8861 83.0283 12.9316 82.9053 12.9316H79.6855V14.5107H82.502C82.8392 14.0915 83.0488 13.8818 83.1309 13.8818C83.1992 13.8818 83.4316 14.0459 83.8281 14.374C84.015 14.5244 84.1084 14.6406 84.1084 14.7227C84.1084 14.8138 84.0492 14.8594 83.9307 14.8594H79.7402C80.0228 15.666 80.4147 16.418 80.916 17.1152C81.2943 16.7507 81.6452 16.32 81.9688 15.8232C82.0918 15.6273 82.1943 15.4313 82.2764 15.2354C82.9554 15.641 83.2949 15.8962 83.2949 16.001C83.2949 16.1195 83.1969 16.1787 83.001 16.1787C82.9281 16.1787 82.8346 16.1696 82.7207 16.1514C82.265 16.5752 81.7158 16.9626 81.0732 17.3135C81.1872 17.4639 81.3216 17.6165 81.4766 17.7715C82.3014 18.6283 83.2061 19.2116 84.1904 19.5215C84.2223 19.5352 84.2383 19.5579 84.2383 19.5898C84.2383 19.64 84.2132 19.6742 84.1631 19.6924C83.876 19.7699 83.6868 19.9316 83.5957 20.1777C83.5456 20.319 83.4818 20.3896 83.4043 20.3896C83.3223 20.3896 83.181 20.3145 82.9805 20.1641C82.2422 19.6217 81.5882 18.9746 81.0186 18.2227C80.4398 17.457 79.9681 16.4567 79.6035 15.2217C79.6855 18.2204 79.7266 19.8314 79.7266 20.0547C79.7266 20.3919 79.5807 20.6494 79.2891 20.8271C79.0521 20.9867 78.7923 21.0664 78.5098 21.0664C78.4368 21.0664 78.3913 21.055 78.373 21.0322C78.3548 21.0049 78.3389 20.9456 78.3252 20.8545C78.2933 20.6768 78.1839 20.54 77.9971 20.4443C77.8102 20.3441 77.4707 20.2347 76.9785 20.1162C76.9421 20.1025 76.9238 20.0706 76.9238 20.0205C76.9238 19.9521 76.9466 19.9225 76.9922 19.9316C77.5983 19.9954 78.1452 20.0273 78.6328 20.0273C78.8014 20.0273 78.8857 19.9294 78.8857 19.7334V17.7305C77.9743 18.3639 76.9238 18.9245 75.7344 19.4121C75.7025 19.7493 75.6318 19.918 75.5225 19.918C75.4085 19.918 75.1807 19.526 74.8389 18.7422C75.0986 18.7012 75.3789 18.6442 75.6797 18.5713C76.819 18.2751 77.8877 17.8877 78.8857 17.4092V14.8594H76.8691C76.5365 14.8594 76.2015 14.8822 75.8643 14.9277L75.7344 14.415C76.14 14.4788 76.5137 14.5107 76.8555 14.5107H78.8857V12.9316H77.1631C76.8805 12.9316 76.582 12.9544 76.2676 13L76.1445 12.4873C76.4954 12.5511 76.8304 12.583 77.1494 12.583H78.8857V11.0381ZM74.0869 11.8926V12.9453C75.0667 13.4193 75.5566 13.9821 75.5566 14.6338C75.5566 15.0075 75.4108 15.1943 75.1191 15.1943C74.946 15.1943 74.8343 15.0645 74.7842 14.8047C74.6702 14.1348 74.4378 13.6175 74.0869 13.2529V13.8271L74.1143 20.7451C74.1143 20.9958 73.9365 21.1211 73.5811 21.1211C73.3486 21.1211 73.2324 21.0186 73.2324 20.8135C73.2324 20.7497 73.237 20.4808 73.2461 20.0068C73.2871 18.3571 73.3236 16.3291 73.3555 13.9229C72.7676 15.4906 72.043 16.7712 71.1816 17.7646C71.168 17.7783 71.152 17.7852 71.1338 17.7852C71.0563 17.7852 71.0176 17.7487 71.0176 17.6758C71.0176 17.6712 71.0199 17.6621 71.0244 17.6484C72.0589 15.9395 72.7812 14.0208 73.1914 11.8926H72.248C72.0065 11.8926 71.7262 11.9154 71.4072 11.9609L71.2705 11.4414C71.6214 11.5098 71.9382 11.5439 72.2207 11.5439H73.3008V10.0469C73.3008 9.28581 73.2689 8.69792 73.2051 8.2832C73.8203 8.34245 74.2168 8.40169 74.3945 8.46094C74.5267 8.50651 74.5928 8.56803 74.5928 8.64551C74.5928 8.764 74.4242 8.88932 74.0869 9.02148V11.5439H74.6885C74.9619 11.1611 75.1351 10.9697 75.208 10.9697C75.29 10.9697 75.5088 11.1383 75.8643 11.4756C75.9782 11.585 76.0352 11.6784 76.0352 11.7559C76.0352 11.847 75.9691 11.8926 75.8369 11.8926H74.0869ZM75.8984 15.4336C75.8848 15.4245 75.8779 15.4108 75.8779 15.3926C75.8779 15.3379 75.9121 15.3105 75.9805 15.3105C75.9896 15.3105 75.9987 15.3128 76.0078 15.3174C76.5365 15.4951 76.9603 15.7389 77.2793 16.0488C77.5482 16.3177 77.6826 16.5752 77.6826 16.8213C77.6826 16.9945 77.6348 17.1312 77.5391 17.2314C77.4616 17.3135 77.3659 17.3545 77.252 17.3545C77.1426 17.3545 77.0605 17.3271 77.0059 17.2725C76.9466 17.2132 76.8896 17.0947 76.835 16.917C76.6436 16.3018 76.3314 15.8073 75.8984 15.4336ZM76.8896 8.5498C76.876 8.53613 76.8691 8.52246 76.8691 8.50879C76.8691 8.45866 76.901 8.43359 76.9648 8.43359C76.9785 8.43359 76.9899 8.43587 76.999 8.44043C77.4958 8.62728 77.8945 8.86654 78.1953 9.1582C78.4505 9.4043 78.5781 9.639 78.5781 9.8623C78.5781 10.0537 78.5257 10.2018 78.4209 10.3066C78.3389 10.3932 78.2386 10.4365 78.1201 10.4365C77.988 10.4365 77.8945 10.4001 77.8398 10.3271C77.7897 10.2588 77.7487 10.138 77.7168 9.96484C77.5801 9.4362 77.3044 8.96452 76.8896 8.5498ZM95.2469 16.9512C95.894 16.459 96.491 15.9076 97.0379 15.2969C97.2977 15.0098 97.5027 14.7295 97.6531 14.4561C98.2775 14.9118 98.5896 15.2012 98.5896 15.3242C98.5896 15.4245 98.4985 15.4746 98.3162 15.4746C98.2342 15.4746 98.1294 15.4655 98.0018 15.4473C97.1769 16.14 96.2996 16.7051 95.3699 17.1426C95.5978 17.4935 95.8689 17.8262 96.1834 18.1406C96.9353 18.9062 97.824 19.4668 98.8494 19.8223C98.8813 19.8314 98.8973 19.8519 98.8973 19.8838C98.8973 19.943 98.8676 19.9772 98.8084 19.9863C98.6534 20.0273 98.5418 20.0866 98.4734 20.1641C98.4051 20.2415 98.3344 20.3783 98.2615 20.5742C98.2251 20.7064 98.1704 20.7725 98.0975 20.7725C98.02 20.7725 97.865 20.6973 97.6326 20.5469C96.8169 20.0273 96.0945 19.3278 95.4656 18.4482C94.7456 17.4274 94.2443 16.1012 93.9617 14.4697H92.3484V19.2549C93.3191 19.0361 94.2146 18.7878 95.035 18.5098C95.0441 18.5052 95.0509 18.5029 95.0555 18.5029C95.1102 18.5029 95.1375 18.5394 95.1375 18.6123C95.1375 18.6396 95.1261 18.6602 95.1033 18.6738C94.0734 19.248 92.5945 19.8542 90.6668 20.4922C90.6075 20.8066 90.5141 20.9639 90.3865 20.9639C90.3273 20.9639 90.2658 20.8864 90.202 20.7314C90.1381 20.5719 90.0219 20.221 89.8533 19.6787C90.1404 19.665 90.4686 19.6286 90.8377 19.5693C91.0473 19.5238 91.2706 19.4805 91.5076 19.4395V13.0547C91.5076 10.9082 91.4848 9.49772 91.4393 8.82324C91.7856 8.9554 92.1297 9.12402 92.4715 9.3291H96.3543C96.6323 9.01921 96.8032 8.86426 96.867 8.86426C96.9399 8.86426 97.1313 8.99642 97.4412 9.26074C97.5916 9.39746 97.6668 9.5 97.6668 9.56836C97.6668 9.66406 97.546 9.79395 97.3045 9.95801V11.2773L97.3455 14.4834C97.3455 14.7249 97.1723 14.8457 96.826 14.8457C96.5753 14.8457 96.45 14.7477 96.45 14.5518V14.4697H94.283C94.5291 15.4723 94.8504 16.2995 95.2469 16.9512ZM96.45 14.1211V12.0156H92.3484V14.1211H96.45ZM96.45 11.667V9.67773H92.3484V11.667H96.45ZM87.7273 9.47266V16.9785L87.7547 20.5879C87.7547 20.8477 87.5861 20.9775 87.2488 20.9775C86.9799 20.9775 86.8455 20.8704 86.8455 20.6562L86.9139 13.9092C86.9139 10.8011 86.8911 9.04199 86.8455 8.63184C87.2557 8.80957 87.602 8.97363 87.8846 9.12402H89.785C90.0265 8.85514 90.1746 8.7207 90.2293 8.7207C90.3204 8.7207 90.5118 8.87793 90.8035 9.19238C90.9539 9.35189 91.0291 9.4681 91.0291 9.54102C91.0291 9.63672 90.8992 9.73014 90.6395 9.82129C89.9878 11.1383 89.3771 12.1934 88.8074 12.9863C89.965 13.9707 90.5437 15.0394 90.5437 16.1924C90.5437 16.7666 90.4275 17.1904 90.1951 17.4639C89.9353 17.8011 89.6277 17.9697 89.2723 17.9697C89.1948 17.9697 89.1447 17.9583 89.1219 17.9355C89.1036 17.9128 89.0877 17.8581 89.074 17.7715C89.0421 17.5846 88.951 17.4411 88.8006 17.3408C88.6502 17.236 88.395 17.138 88.035 17.0469C87.9985 17.0332 87.9803 17.0013 87.9803 16.9512C87.9803 16.8828 88.0031 16.8532 88.0486 16.8623C88.5818 16.9307 88.9646 16.9648 89.1971 16.9648C89.3338 16.9648 89.4454 16.9124 89.532 16.8076C89.6551 16.6572 89.7166 16.3883 89.7166 16.001C89.7166 14.8936 89.311 13.9023 88.4998 13.0273C89.0239 11.9518 89.4523 10.7669 89.785 9.47266H87.7273ZM102.605 10.2861H106.502V9.30176C106.502 9.05111 106.483 8.73893 106.447 8.36523C107.067 8.43359 107.468 8.4974 107.65 8.55664C107.787 8.60221 107.855 8.66374 107.855 8.74121C107.855 8.8597 107.698 8.98047 107.383 9.10352V10.2861H111.499C111.822 9.93066 112.018 9.75293 112.087 9.75293C112.178 9.75293 112.426 9.93978 112.832 10.3135C113.046 10.5186 113.153 10.6735 113.153 10.7783C113.153 10.9242 112.975 10.9971 112.62 10.9971C112.451 10.9971 112.294 11.0586 112.148 11.1816C111.761 11.5143 111.485 11.7422 111.321 11.8652C111.312 11.8743 111.3 11.8789 111.287 11.8789C111.232 11.8789 111.205 11.8516 111.205 11.7969C111.205 11.7878 111.207 11.7786 111.212 11.7695C111.403 11.291 111.531 10.9128 111.594 10.6348H102.619C102.601 11.2181 102.466 11.667 102.215 11.9814C102.015 12.2412 101.773 12.3711 101.491 12.3711C101.318 12.3711 101.181 12.3187 101.081 12.2139C100.99 12.1227 100.944 12.0111 100.944 11.8789C100.944 11.6465 101.069 11.4642 101.32 11.332C101.689 11.1497 101.947 10.9173 102.092 10.6348C102.22 10.3932 102.309 10.0492 102.359 9.60254C102.364 9.56152 102.393 9.54102 102.448 9.54102C102.503 9.54102 102.532 9.56152 102.537 9.60254C102.582 9.87142 102.605 10.0993 102.605 10.2861ZM106.611 19.3848V12.9727H103.487C103.154 12.9727 102.838 13 102.537 13.0547L102.4 12.5283C102.737 12.5921 103.1 12.624 103.487 12.624H110.043C110.448 12.141 110.69 11.8994 110.767 11.8994C110.849 11.8994 111.116 12.0817 111.567 12.4463C111.79 12.6286 111.902 12.763 111.902 12.8496C111.902 12.9316 111.836 12.9727 111.704 12.9727H107.479V15.8848H109.817C110.223 15.3971 110.464 15.1533 110.542 15.1533C110.61 15.1533 110.872 15.3402 111.328 15.7139C111.524 15.8825 111.622 16.0146 111.622 16.1104C111.622 16.1924 111.562 16.2334 111.444 16.2334H107.479V19.624C108.008 19.7243 108.637 19.7744 109.366 19.7744C110.806 19.7744 111.991 19.6855 112.921 19.5078C112.971 19.4987 112.996 19.5283 112.996 19.5967C112.996 19.6423 112.98 19.6742 112.948 19.6924C112.761 19.7926 112.638 19.8883 112.579 19.9795C112.524 20.0615 112.494 20.1755 112.49 20.3213C112.49 20.4854 112.401 20.5742 112.223 20.5879C111.84 20.6152 110.981 20.6289 109.646 20.6289C107.864 20.6289 106.502 20.2552 105.558 19.5078C104.829 18.929 104.271 18.1794 103.883 17.2588C103.3 18.7262 102.302 19.9225 100.889 20.8477C100.876 20.8522 100.864 20.8545 100.855 20.8545C100.773 20.8545 100.732 20.8112 100.732 20.7246C100.732 20.7109 100.737 20.6995 100.746 20.6904C102.113 19.4554 102.986 17.9561 103.364 16.1924C103.51 15.4906 103.589 14.8799 103.603 14.3604C104.515 14.5381 104.97 14.6953 104.97 14.832C104.97 14.9186 104.929 14.9824 104.847 15.0234C104.793 15.0553 104.667 15.1009 104.471 15.1602C104.357 15.7617 104.216 16.32 104.047 16.835C104.48 17.8148 105.073 18.5348 105.825 18.9951C106.075 19.1455 106.338 19.2754 106.611 19.3848Z" fill="#8B6C3A"/>
<path d="M59.8475 28.589H1L5.20339 1H125L120.797 28.589H70.3559L59.8475 39" stroke="#8B6C3A"/>
</svg>
